<svg width="202" height="60" viewBox="0 0 202 60" fill="none" xmlns="http://www.w3.org/2000/svg">
<g clip-path="url(#clip0_254_3554)">
<path d="M102.855 33.8725C100.62 33.7766 99.3867 32.5428 99.3867 30.9253C99.3867 29.3077 100.62 28.074 102.855 27.9781V27.2241H103.705V27.9781C105.939 28.074 107.173 29.3077 107.173 30.9253C107.173 32.5428 105.939 33.7766 103.705 33.8725V34.6265H102.855V33.8725ZM102.855 28.7868C101.141 28.8348 100.243 29.7395 100.243 30.9253C100.243 32.111 101.141 33.0158 102.855 33.0637V28.7868ZM103.705 33.0637C105.418 33.0158 106.323 32.111 106.323 30.9253C106.323 29.7395 105.418 28.8691 103.705 28.7868V33.0637Z" fill="#868685"/>
<path d="M113.067 31.9259V32.2138H108.955C108.976 32.6853 109.183 33.1294 109.529 33.4501C109.875 33.7708 110.334 33.9422 110.806 33.9273C111.131 33.9408 111.455 33.8868 111.758 33.7689C112.061 33.6509 112.337 33.4715 112.567 33.2419H112.711V34.0987C112.134 34.5165 111.428 34.7179 110.717 34.6675C110.374 34.6707 110.033 34.6063 109.715 34.4779C109.397 34.3496 109.108 34.1599 108.863 33.9197C108.618 33.6794 108.423 33.3933 108.289 33.0777C108.155 32.762 108.084 32.4231 108.081 32.0802C108.078 31.7372 108.142 31.397 108.271 31.079C108.399 30.761 108.589 30.4713 108.829 30.2266C109.069 29.9819 109.355 29.7869 109.671 29.6528C109.987 29.5186 110.326 29.4479 110.669 29.4448C110.996 29.4245 111.324 29.4754 111.63 29.5941C111.936 29.7127 112.212 29.8963 112.44 30.1322C112.668 30.368 112.842 30.6505 112.951 30.9602C113.059 31.2699 113.099 31.5994 113.067 31.9259ZM109.078 31.4462H112.211C112.155 31.0897 111.97 30.7664 111.69 30.5386C111.41 30.3108 111.056 30.1946 110.696 30.2124C110.327 30.2081 109.968 30.3272 109.675 30.5507C109.382 30.7743 109.172 31.0895 109.078 31.4462Z" fill="#868685"/>
<path d="M113.396 33.7764H113.924C114.297 33.2834 114.497 32.6811 114.493 32.0629L114.637 29.5955H118.098V33.7764H118.859V35.8326H118.05V34.5372H114.205V35.8669H113.396V33.7764ZM115.302 32.0629C115.306 32.6747 115.122 33.2729 114.774 33.7764H117.296V30.3494H115.391L115.302 32.0629Z" fill="#868685"/>
<path d="M124.514 31.9259V32.2138H120.401C120.423 32.6853 120.629 33.1294 120.975 33.4501C121.322 33.7707 121.78 33.9422 122.252 33.9273C122.576 33.9402 122.899 33.8859 123.201 33.768C123.503 33.65 123.777 33.4709 124.007 33.2419H124.151V34.0986C123.573 34.5165 122.867 34.7179 122.156 34.6675C121.813 34.6706 121.473 34.6062 121.155 34.4779C120.837 34.3496 120.547 34.1599 120.302 33.9196C119.808 33.4344 119.527 32.7727 119.521 32.0801C119.514 31.3875 119.783 30.7208 120.269 30.2266C120.754 29.7323 121.415 29.4511 122.108 29.4447C122.436 29.4245 122.764 29.4755 123.07 29.5941C123.376 29.7128 123.653 29.8962 123.882 30.1319C124.11 30.3676 124.285 30.65 124.394 30.9597C124.503 31.2694 124.544 31.599 124.514 31.9259ZM120.525 31.4461H123.657C123.6 31.0891 123.413 30.7657 123.132 30.538C122.852 30.3103 122.497 30.1944 122.135 30.2124C121.767 30.2072 121.408 30.326 121.116 30.5499C120.824 30.7737 120.616 31.0894 120.525 31.4461Z" fill="#868685"/>
<path d="M128.407 34.6744C128.056 34.6901 127.706 34.6104 127.396 34.4439C127.086 34.2774 126.827 34.0303 126.646 33.7286H126.598V36.621H125.796V29.5956H126.55L126.598 30.4044H126.646C126.828 30.1047 127.088 29.8599 127.398 29.6958C127.708 29.5317 128.057 29.4545 128.407 29.4722C129.067 29.5201 129.684 29.816 130.135 30.3004C130.586 30.7849 130.836 31.422 130.836 32.0836C130.836 32.7452 130.586 33.3823 130.135 33.8668C129.684 34.3512 129.067 34.6471 128.407 34.695V34.6744ZM128.311 33.9205C128.683 33.9494 129.056 33.8655 129.379 33.6798C129.703 33.4941 129.964 33.2151 130.126 32.8793C130.289 32.5434 130.347 32.1663 130.293 31.797C130.238 31.4278 130.074 31.0835 129.82 30.8092C129.567 30.5348 129.238 30.3431 128.874 30.259C128.51 30.1749 128.13 30.2023 127.782 30.3376C127.434 30.4729 127.135 30.71 126.924 31.0177C126.712 31.3255 126.599 31.6898 126.598 32.063C126.582 32.299 126.614 32.5357 126.693 32.7587C126.772 32.9817 126.895 33.1863 127.055 33.3602C127.216 33.534 127.41 33.6733 127.626 33.7696C127.842 33.866 128.075 33.9173 128.311 33.9205Z" fill="#868685"/>
<path d="M136.049 31.3982V34.5373H135.289L135.241 33.7286H135.193C135.034 34.0257 134.795 34.2721 134.503 34.4394C134.211 34.6067 133.877 34.6882 133.541 34.6744C133.329 34.6966 133.115 34.6739 132.913 34.6077C132.71 34.5416 132.524 34.4335 132.366 34.2906C132.208 34.1477 132.083 33.9731 131.997 33.7782C131.911 33.5834 131.867 33.3726 131.868 33.1597C131.864 32.9357 131.909 32.7135 131.999 32.5083C132.089 32.3031 132.222 32.1197 132.389 31.9707C132.556 31.8217 132.754 31.7105 132.968 31.6448C133.182 31.5791 133.408 31.5605 133.63 31.5901C134.191 31.5675 134.748 31.6978 135.241 31.9671V31.3982C135.241 30.6374 134.816 30.2125 133.959 30.2125C133.295 30.2151 132.654 30.4586 132.156 30.8979H132.012V30.1165C132.606 29.6716 133.327 29.4311 134.069 29.4311C134.333 29.4096 134.599 29.4456 134.848 29.5366C135.097 29.6277 135.324 29.7716 135.512 29.9586C135.7 30.1455 135.846 30.371 135.938 30.6195C136.031 30.868 136.069 31.1337 136.049 31.3982ZM135.241 32.7279C134.792 32.4714 134.283 32.3412 133.767 32.3509C133.006 32.3509 132.677 32.6319 132.677 33.1597C132.677 33.6874 133.006 33.9205 133.582 33.9205C133.945 33.9073 134.296 33.7871 134.592 33.5749C134.887 33.3627 135.112 33.068 135.241 32.7279Z" fill="#868685"/>
<path d="M138.612 32.4467C138.475 33.8723 137.852 34.5029 136.947 34.6263L136.762 33.8244C137.331 33.7284 137.66 33.3926 137.756 32.4536L138.043 29.6023H141.601V34.544H140.799V30.3631H138.797L138.612 32.4467Z" fill="#868685"/>
<path d="M143.122 29.5955H143.924V31.213H145.295C145.522 31.1984 145.75 31.2306 145.964 31.3075C146.179 31.3844 146.375 31.5045 146.541 31.6602C146.707 31.816 146.839 32.0042 146.93 32.2131C147.02 32.4221 147.067 32.6474 147.067 32.8751C147.067 33.1028 147.02 33.3281 146.93 33.5371C146.839 33.746 146.707 33.9342 146.541 34.09C146.375 34.2457 146.179 34.3658 145.964 34.4427C145.75 34.5196 145.522 34.5518 145.295 34.5372H143.156L143.122 29.5955ZM145.261 33.7764C145.946 33.7764 146.254 33.4406 146.254 32.8717C146.254 32.3028 145.925 31.9669 145.261 31.9669H143.89V33.7764H145.261Z" fill="#868685"/>
<path d="M148.962 32.3987V34.5372H148.153V29.5955H148.962V31.6517H151.807V29.5955H152.615V34.5372H151.807V32.3987H148.962Z" fill="#868685"/>
<path d="M158.078 31.3981V34.5372H157.317L157.269 33.7284H157.221C157.062 34.0256 156.823 34.272 156.531 34.4393C156.239 34.6066 155.905 34.6881 155.569 34.6743C155.357 34.6964 155.143 34.6737 154.941 34.6076C154.738 34.5414 154.552 34.4334 154.395 34.2904C154.237 34.1475 154.111 33.9729 154.025 33.7781C153.939 33.5832 153.896 33.3724 153.897 33.1595C153.893 32.9382 153.937 32.7186 154.025 32.5156C154.114 32.3125 154.244 32.1306 154.408 31.9821C154.572 31.8335 154.766 31.7217 154.977 31.654C155.188 31.5864 155.411 31.5646 155.631 31.59C156.194 31.5667 156.753 31.697 157.248 31.9669V31.3981C157.248 30.6373 156.823 30.2123 155.967 30.2123C155.303 30.2149 154.662 30.4585 154.164 30.8977H154.02V30.1164C154.613 29.6715 155.335 29.431 156.076 29.431C156.342 29.4063 156.61 29.4399 156.862 29.5296C157.114 29.6192 157.343 29.7627 157.534 29.9499C157.724 30.1372 157.871 30.3638 157.965 30.6139C158.059 30.864 158.098 31.1316 158.078 31.3981ZM157.269 32.7277C156.821 32.4713 156.311 32.341 155.795 32.3508C155.034 32.3508 154.705 32.6318 154.705 33.1595C154.705 33.6873 155.034 33.9203 155.603 33.9203C155.968 33.9085 156.32 33.7889 156.617 33.5766C156.913 33.3643 157.14 33.0689 157.269 32.7277Z" fill="#868685"/>
<path d="M159.401 31.2131C159.398 30.9832 159.445 30.7554 159.537 30.5449C159.63 30.3345 159.766 30.1464 159.938 29.9931C160.109 29.8399 160.312 29.7251 160.531 29.6565C160.75 29.588 160.982 29.5672 161.21 29.5956H163.438V34.5373H162.636V32.8238H161.539L159.929 34.5373H158.88L160.545 32.7758V32.7279C160.214 32.6371 159.922 32.4393 159.715 32.1653C159.508 31.8913 159.398 31.5565 159.401 31.2131ZM161.21 30.3564C160.525 30.3564 160.21 30.6854 160.21 31.2131C160.21 31.7409 160.545 32.063 161.21 32.063H162.636V30.3564H161.21Z" fill="#868685"/>
<path d="M169.798 33.9204C170.073 33.9235 170.346 33.8704 170.599 33.7643C170.852 33.6582 171.081 33.5014 171.272 33.3036H171.395V34.1055C170.924 34.5139 170.311 34.7185 169.689 34.6744C169.271 34.6513 168.864 34.5282 168.503 34.3155C168.143 34.1028 167.838 33.8067 167.615 33.452C167.393 33.0972 167.259 32.6943 167.224 32.2769C167.189 31.8596 167.255 31.44 167.416 31.0534C167.577 30.6668 167.829 30.3244 168.149 30.0551C168.47 29.7858 168.851 29.5973 169.259 29.5055C169.668 29.4138 170.093 29.4213 170.498 29.5276C170.903 29.6339 171.276 29.8359 171.587 30.1165L171.251 30.8019C171.055 30.6146 170.824 30.4679 170.571 30.3703C170.319 30.2726 170.049 30.226 169.778 30.233C169.306 30.2617 168.862 30.4695 168.538 30.8141C168.214 31.1586 168.033 31.6139 168.033 32.087C168.033 32.5601 168.214 33.0154 168.538 33.3599C168.862 33.7044 169.306 33.9123 169.778 33.941L169.798 33.9204Z" fill="#868685"/>
<path d="M173.883 32.4467C173.753 33.8723 173.122 34.5029 172.224 34.6263L172.032 33.8244C172.601 33.7284 172.937 33.3926 173.026 32.4536L173.314 29.6023H176.878V34.544H176.069V30.3631H174.075L173.883 32.4467Z" fill="#868685"/>
<path d="M180.059 36.6208H179.202L180.059 34.4892L177.824 29.5955H178.681L180.436 33.4885H180.484L182.053 29.5955H182.903L180.059 36.6208Z" fill="#868685"/>
<path d="M187.16 32.0629V34.5372H186.351V32.0629L183.973 34.5372H182.883L185.398 32.0149L183.047 29.5955H184.089L186.372 32.0149V29.5955H187.16V32.0149L189.435 29.5955H190.484L188.106 32.0149L190.628 34.5372H189.531L187.16 32.0629Z" fill="#868685"/>
<path d="M196.104 32.1589C196.118 32.4928 196.062 32.826 195.94 33.1373C195.819 33.4486 195.634 33.7313 195.398 33.9677C195.161 34.204 194.878 34.3888 194.567 34.5104C194.256 34.632 193.923 34.6879 193.589 34.6743C192.115 34.6743 191.025 33.5845 191.025 31.686C191.025 28.5948 192.211 27.4091 194.014 27.4091C194.585 27.4094 195.151 27.2977 195.679 27.0801V27.8889C195.161 28.139 194.588 28.2523 194.014 28.2178C192.732 28.2178 191.923 29.0266 191.779 30.6373H191.827C192.022 30.3241 192.295 30.0674 192.62 29.893C192.944 29.7185 193.309 29.6325 193.678 29.6435C194.005 29.6393 194.33 29.7023 194.632 29.8284C194.934 29.9545 195.207 30.1411 195.435 30.3768C195.662 30.6124 195.839 30.8921 195.954 31.1986C196.069 31.5051 196.12 31.8319 196.104 32.1589ZM195.295 32.1589C195.286 31.8219 195.177 31.4952 194.983 31.2197C194.789 30.9441 194.518 30.732 194.203 30.6098C193.889 30.4877 193.546 30.4609 193.217 30.5329C192.887 30.6049 192.587 30.7724 192.352 31.0146C192.117 31.2567 191.959 31.5626 191.898 31.8941C191.836 32.2255 191.874 32.5678 192.006 32.878C192.138 33.1881 192.359 33.4525 192.64 33.6379C192.922 33.8233 193.252 33.9216 193.589 33.9204C193.82 33.9275 194.049 33.8864 194.263 33.7997C194.477 33.7129 194.671 33.5825 194.831 33.4167C194.992 33.2509 195.116 33.0534 195.196 32.8368C195.276 32.6202 195.31 32.3893 195.295 32.1589Z" fill="#868685"/>
<path d="M201.327 31.398V34.5372H200.566L200.518 33.7284H200.47C200.311 34.0266 200.071 34.2737 199.777 34.4411C199.484 34.6085 199.149 34.6894 198.811 34.6743C198.6 34.6964 198.385 34.6737 198.183 34.6076C197.981 34.5414 197.795 34.4334 197.637 34.2904C197.479 34.1475 197.353 33.9729 197.267 33.7781C197.181 33.5832 197.138 33.3724 197.139 33.1595C197.135 32.9362 197.179 32.7147 197.269 32.51C197.358 32.3054 197.491 32.1223 197.657 31.9734C197.824 31.8245 198.02 31.7132 198.234 31.647C198.447 31.5809 198.672 31.5614 198.894 31.59C199.457 31.5667 200.016 31.697 200.511 31.9669V31.398C200.511 30.6373 200.086 30.2123 199.229 30.2123C198.565 30.2149 197.925 30.4585 197.427 30.8977H197.283V30.1163C197.876 29.6714 198.598 29.4309 199.339 29.4309C199.604 29.4084 199.871 29.4436 200.121 29.5342C200.371 29.6248 200.598 29.7685 200.787 29.9556C200.976 30.1426 201.122 30.3685 201.215 30.6175C201.309 30.8666 201.347 31.1329 201.327 31.398ZM200.518 32.7277C200.07 32.4713 199.561 32.341 199.044 32.3508C198.284 32.3508 197.955 32.6318 197.955 33.1595C197.955 33.6873 198.284 33.9203 198.852 33.9203C199.217 33.9085 199.57 33.7889 199.866 33.5766C200.162 33.3643 200.389 33.0689 200.518 32.7277Z" fill="#868685"/>
<path d="M100.484 43.0157V47.1966H99.6748V42.2549H104.144V47.1966H103.335V43.0157H100.484Z" fill="#868685"/>
<path d="M107.797 47.3338C107.28 47.3365 106.774 47.1857 106.342 46.9004C105.911 46.6151 105.574 46.2082 105.375 45.7313C105.175 45.2544 105.121 44.7289 105.22 44.2214C105.32 43.714 105.567 43.2474 105.932 42.8808C106.297 42.5142 106.762 42.2642 107.269 42.1623C107.776 42.0604 108.301 42.1113 108.779 42.3085C109.257 42.5058 109.666 42.8405 109.954 43.2702C110.241 43.6999 110.395 44.2054 110.395 44.7224C110.408 45.0678 110.35 45.4122 110.224 45.7342C110.099 46.0561 109.908 46.3488 109.664 46.5938C109.421 46.8388 109.129 47.031 108.808 47.1583C108.486 47.2856 108.142 47.3454 107.797 47.3338ZM107.797 46.5799C108.166 46.5908 108.531 46.4912 108.843 46.2938C109.156 46.0965 109.403 45.8103 109.552 45.4721C109.701 45.1338 109.745 44.7587 109.68 44.3948C109.615 44.031 109.442 43.6949 109.185 43.4297C108.927 43.1644 108.597 42.9819 108.235 42.9057C107.873 42.8295 107.497 42.8629 107.154 43.0018C106.812 43.1406 106.518 43.3785 106.312 43.685C106.105 43.9915 105.995 44.3528 105.994 44.7224C105.977 44.9674 106.011 45.2133 106.095 45.4443C106.178 45.6753 106.309 45.8864 106.478 46.0639C106.648 46.2413 106.853 46.3814 107.08 46.475C107.307 46.5686 107.551 46.6136 107.797 46.6073V46.5799Z" fill="#868685"/>
<path d="M114.918 47.1966H114.157V42.2549H114.966V46.0109L117.934 42.2549H118.695V47.1966H117.934V43.4406L114.918 47.1966Z" fill="#868685"/>
<path d="M120.806 45.0582V47.1966H119.99V42.2549H120.799V44.3111H123.65V42.2549H124.452V47.1966H123.65V45.0582H120.806Z" fill="#868685"/>
<path d="M125.411 43.0157V42.2549H129.729V43.0157H127.975V47.1966H127.166V43.0157H125.411Z" fill="#868685"/>
<path d="M134.856 44.5852V44.8662H130.744C130.767 45.3383 130.975 45.7824 131.322 46.1029C131.67 46.4234 132.129 46.5946 132.601 46.5797C132.928 46.5996 133.255 46.5514 133.562 46.4381C133.868 46.3248 134.148 46.149 134.384 45.9217H134.527V46.7716C133.95 47.1895 133.244 47.3909 132.533 47.3405C132.19 47.3437 131.85 47.2792 131.532 47.1509C131.214 47.0226 130.924 46.8329 130.679 46.5926C130.435 46.3523 130.24 46.0662 130.106 45.7506C129.971 45.435 129.901 45.096 129.898 44.7531C129.894 44.4102 129.959 44.07 130.087 43.752C130.215 43.4339 130.405 43.1443 130.645 42.8996C130.886 42.6548 131.172 42.4599 131.487 42.3257C131.803 42.1916 132.142 42.1209 132.485 42.1177C132.809 42.1018 133.133 42.1554 133.434 42.2751C133.735 42.3948 134.008 42.5777 134.232 42.8116C134.457 43.0454 134.629 43.3248 134.737 43.6307C134.844 43.9367 134.885 44.2621 134.856 44.5852ZM130.867 44.1054H134.007C133.95 43.7484 133.763 43.425 133.482 43.1973C133.201 42.9696 132.846 42.8537 132.485 42.8717C132.116 42.8673 131.757 42.9864 131.464 43.21C131.171 43.4336 130.961 43.7488 130.867 44.1054Z" fill="#868685"/>
<path d="M137.234 45.1061C137.097 46.5318 136.474 47.1623 135.569 47.2926L135.377 46.4838C135.946 46.3878 136.282 46.052 136.378 45.113L136.659 42.2617H140.223V47.2035H139.414V43.0225H137.419L137.234 45.1061Z" fill="#868685"/>
<path d="M142.835 45.1061C142.698 46.5318 142.074 47.1623 141.169 47.2926L140.984 46.4838C141.553 46.3878 141.882 46.052 141.978 45.113L142.266 42.2617H145.823V47.2035H145.021V43.0225H143.02L142.835 45.1061Z" fill="#868685"/>
<path d="M151.998 44.5852V44.8662H147.886C147.907 45.3377 148.113 45.7818 148.46 46.1025C148.806 46.4231 149.264 46.5946 149.736 46.5797C150.063 46.5996 150.39 46.5514 150.696 46.4381C151.003 46.3248 151.283 46.1489 151.518 45.9217H151.662V46.7716C151.085 47.1894 150.379 47.3908 149.668 47.3405C148.975 47.3468 148.308 47.0778 147.814 46.5926C147.32 46.1073 147.039 45.4457 147.032 44.7531C147.026 44.0605 147.295 43.3938 147.78 42.8995C148.265 42.4053 148.927 42.1241 149.62 42.1177C149.944 42.1019 150.268 42.1555 150.57 42.2752C150.871 42.3948 151.144 42.5776 151.369 42.8113C151.594 43.045 151.767 43.3242 151.876 43.6302C151.984 43.9361 152.026 44.2617 151.998 44.5852ZM148.009 44.1054H151.141C151.084 43.7484 150.897 43.425 150.617 43.1973C150.336 42.9696 149.981 42.8536 149.62 42.8716C149.252 42.8676 148.893 42.987 148.602 43.2106C148.31 43.4342 148.101 43.7493 148.009 44.1054Z" fill="#868685"/>
<path d="M153.849 44.7223V47.1966H153.04V42.2549H153.849V44.6812L156.364 42.2549H157.406L154.843 44.6812L157.584 47.1966H156.494L153.849 44.7223Z" fill="#868685"/>
<path d="M157.55 43.0157V42.2549H161.875V43.0157H160.113V47.1966H159.304V43.0157H157.55Z" fill="#868685"/>
<path d="M164.486 49.2871H163.63L164.486 47.1486L162.252 42.2549H163.109L164.863 46.148H164.911L166.481 42.2549H167.331L164.486 49.2871Z" fill="#868685"/>
<path d="M172.033 44.0574V47.1965H171.272L171.224 46.3878H171.176C171.018 46.6849 170.779 46.9313 170.486 47.0986C170.194 47.2659 169.861 47.3474 169.524 47.3336C169.312 47.3558 169.098 47.333 168.896 47.2669C168.694 47.2008 168.507 47.0927 168.35 46.9498C168.192 46.8069 168.066 46.6323 167.98 46.4374C167.894 46.2425 167.851 46.0318 167.852 45.8189C167.848 45.5949 167.892 45.3727 167.982 45.1675C168.072 44.9623 168.205 44.7789 168.372 44.6299C168.54 44.4808 168.737 44.3697 168.951 44.304C169.165 44.2383 169.391 44.2197 169.613 44.2493C170.175 44.2266 170.733 44.3595 171.224 44.6331V44.0574C171.224 43.3035 170.799 42.8717 169.942 42.8717C169.278 42.8743 168.638 43.1178 168.14 43.5571H167.968V42.7757C168.562 42.3308 169.283 42.0903 170.025 42.0903C170.291 42.0645 170.56 42.0974 170.813 42.1866C171.065 42.2757 171.295 42.419 171.486 42.6064C171.678 42.7938 171.826 43.0208 171.92 43.2715C172.015 43.5221 172.053 43.7903 172.033 44.0574ZM171.224 45.3871C170.776 45.1306 170.267 45.0003 169.75 45.0101C168.99 45.0101 168.661 45.298 168.661 45.8189C168.661 46.3398 168.99 46.5797 169.565 46.5797C169.929 46.5665 170.28 46.4463 170.575 46.2341C170.87 46.0219 171.096 45.7272 171.224 45.3871Z" fill="#868685"/>
<path d="M174.692 45.1061C174.555 46.5318 173.932 47.1623 173.027 47.2926L172.835 46.4838C173.411 46.3878 173.74 46.052 173.836 45.113L174.124 42.2617H177.681V47.2035H176.879V43.0225H174.884L174.692 45.1061Z" fill="#868685"/>
<path d="M179.202 42.2549H180.004V43.8656H181.334C181.561 43.851 181.789 43.8831 182.003 43.96C182.217 44.037 182.414 44.157 182.58 44.3128C182.746 44.4686 182.878 44.6567 182.969 44.8657C183.059 45.0747 183.106 45.3 183.106 45.5277C183.106 45.7554 183.059 45.9807 182.969 46.1896C182.878 46.3986 182.746 46.5868 182.58 46.7425C182.414 46.8983 182.217 47.0184 182.003 47.0953C181.789 47.1722 181.561 47.2044 181.334 47.1898H179.202V42.2549ZM181.334 46.4358C182.019 46.4358 182.334 46.1 182.334 45.5311C182.334 44.9622 181.999 44.6332 181.334 44.6332H180.004V46.4358H181.334Z" fill="#868685"/>
<path d="M185.041 45.0582V47.1966H184.232V42.2549H185.041V44.3111H187.886V42.2549H188.694V47.1966H187.886V45.0582H185.041Z" fill="#868685"/>
<path d="M192.114 47.3337C191.597 47.3391 191.089 47.1906 190.656 46.907C190.223 46.6234 189.884 46.2175 189.682 45.7408C189.48 45.2641 189.425 44.7382 189.522 44.2299C189.62 43.7215 189.867 43.2537 190.231 42.8857C190.595 42.5178 191.06 42.2663 191.567 42.1633C192.075 42.0603 192.601 42.1104 193.08 42.3072C193.559 42.504 193.968 42.8387 194.256 43.2687C194.544 43.6987 194.698 44.2047 194.698 44.7223C194.712 45.0665 194.654 45.4097 194.529 45.7307C194.404 46.0517 194.215 46.3437 193.973 46.5885C193.731 46.8333 193.441 47.0258 193.121 47.154C192.801 47.2822 192.459 47.3433 192.114 47.3337ZM192.114 46.5798C192.484 46.5893 192.847 46.4885 193.159 46.2903C193.471 46.0921 193.716 45.8055 193.864 45.467C194.012 45.1286 194.056 44.7537 193.99 44.3903C193.924 44.0268 193.751 43.6914 193.493 43.4268C193.235 43.1622 192.904 42.9805 192.543 42.9049C192.181 42.8292 191.805 42.8631 191.463 43.0022C191.121 43.1412 190.828 43.3792 190.622 43.6856C190.415 43.992 190.305 44.3529 190.305 44.7223C190.288 44.9679 190.322 45.2144 190.406 45.4459C190.489 45.6774 190.621 45.8888 190.791 46.0664C190.962 46.244 191.168 46.3838 191.396 46.477C191.623 46.5701 191.868 46.6145 192.114 46.6072V46.5798Z" fill="#868685"/>
<path d="M196.528 47.1965H195.768V42.2548H196.576V46.0108L199.565 42.2548H200.325V47.1965H199.496V43.4405L196.528 47.1965ZM196.809 41.0279V40.1643C196.963 40.3425 197.152 40.4855 197.366 40.5835C197.579 40.6816 197.812 40.7323 198.047 40.7323C198.281 40.7323 198.514 40.6816 198.727 40.5835C198.941 40.4855 199.131 40.3425 199.284 40.1643V41.0211C198.918 41.2665 198.487 41.3976 198.047 41.3976C197.606 41.3976 197.175 41.2665 196.809 41.0211V41.0279Z" fill="#868685"/>
<path d="M102.053 59.2392C102.328 59.2422 102.6 59.1891 102.854 59.083C103.107 58.9769 103.336 58.8202 103.527 58.6223H103.671V59.4311C103.196 59.8386 102.581 60.0429 101.957 60C101.264 60 100.6 59.7249 100.111 59.2351C99.6208 58.7454 99.3457 58.0812 99.3457 57.3886C99.3457 56.696 99.6208 56.0318 100.111 55.5421C100.6 55.0524 101.264 54.7772 101.957 54.7772C102.304 54.7554 102.651 54.805 102.977 54.9229C103.304 55.0408 103.603 55.2245 103.856 55.4626L103.527 56.148C103.331 55.9595 103.1 55.8116 102.847 55.7128C102.595 55.6139 102.325 55.5662 102.053 55.5723C101.581 55.601 101.137 55.8089 100.813 56.1534C100.489 56.4979 100.308 56.9532 100.308 57.4263C100.308 57.8994 100.489 58.3547 100.813 58.6992C101.137 59.0437 101.581 59.2516 102.053 59.2803V59.2392Z" fill="#868685"/>
<path d="M107.18 59.9999C106.663 59.9999 106.158 59.8467 105.729 59.5598C105.299 59.2728 104.965 58.865 104.767 58.3878C104.569 57.9106 104.518 57.3856 104.619 56.879C104.719 56.3725 104.968 55.9072 105.333 55.542C105.698 55.1767 106.164 54.928 106.67 54.8273C107.177 54.7265 107.702 54.7782 108.179 54.9759C108.656 55.1735 109.064 55.5082 109.351 55.9377C109.638 56.3671 109.791 56.872 109.791 57.3885C109.804 57.7348 109.745 58.0799 109.618 58.4024C109.491 58.7248 109.299 59.0177 109.054 59.2627C108.809 59.5078 108.516 59.6997 108.194 59.8265C107.871 59.9533 107.526 60.0123 107.18 59.9999ZM107.18 59.2391C107.55 59.25 107.914 59.1502 108.227 58.9526C108.54 58.7549 108.786 58.4684 108.935 58.1297C109.084 57.791 109.128 57.4155 109.062 57.0515C108.996 56.6875 108.823 56.3514 108.565 56.0864C108.307 55.8214 107.976 55.6395 107.613 55.564C107.251 55.4886 106.875 55.523 106.532 55.6629C106.19 55.8028 105.897 56.0418 105.691 56.3492C105.485 56.6566 105.376 57.0185 105.377 57.3885C105.364 57.6309 105.401 57.8735 105.486 58.1009C105.571 58.3283 105.703 58.5355 105.872 58.7095C106.042 58.8834 106.245 59.0203 106.47 59.1115C106.695 59.2026 106.937 59.2461 107.18 59.2391Z" fill="#868685"/>
<path d="M115.919 57.4777C115.932 57.8126 115.876 58.1466 115.754 58.4588C115.632 58.7709 115.447 59.0544 115.21 59.2913C114.973 59.5283 114.69 59.7136 114.377 59.8356C114.065 59.9576 113.731 60.0136 113.396 60C111.93 60 110.833 58.9034 110.833 57.0048C110.833 53.9205 112.019 52.7348 113.828 52.7348C114.398 52.7344 114.962 52.6202 115.487 52.3989V53.2077C114.972 53.4588 114.4 53.5722 113.828 53.5367C112.547 53.5367 111.772 54.3455 111.594 55.963H111.642C111.834 55.6475 112.107 55.3887 112.432 55.2129C112.757 55.0371 113.123 54.9507 113.492 54.9623C113.82 54.9582 114.145 55.0211 114.447 55.1472C114.749 55.2733 115.022 55.46 115.249 55.6956C115.477 55.9313 115.653 56.2109 115.768 56.5174C115.883 56.8239 115.935 57.1507 115.919 57.4777ZM115.11 57.4777C115.1 57.1411 114.992 56.8146 114.798 56.5392C114.604 56.2638 114.333 56.0517 114.02 55.9293C113.706 55.8069 113.363 55.7798 113.034 55.8512C112.705 55.9226 112.404 56.0895 112.169 56.3309C111.934 56.5724 111.775 56.8777 111.713 57.2087C111.651 57.5397 111.687 57.8817 111.818 58.1921C111.949 58.5024 112.169 58.7672 112.45 58.9534C112.73 59.1397 113.06 59.2391 113.396 59.2392C113.628 59.2473 113.858 59.2069 114.073 59.1206C114.288 59.0343 114.482 58.904 114.643 58.7381C114.805 58.5722 114.93 58.3744 115.01 58.1573C115.09 57.9402 115.124 57.7088 115.11 57.4777Z" fill="#868685"/>
<path d="M119.305 59.2391C119.58 59.2422 119.852 59.1891 120.106 59.083C120.359 58.9769 120.588 58.8201 120.779 58.6223H120.923V59.4311C120.449 59.8399 119.833 60.0444 119.209 59.9999C118.516 59.9999 117.852 59.7248 117.363 59.2351C116.873 58.7454 116.598 58.0811 116.598 57.3886C116.598 56.696 116.873 56.0318 117.363 55.542C117.852 55.0523 118.516 54.7772 119.209 54.7772C119.557 54.7561 119.905 54.8059 120.232 54.9238C120.56 55.0416 120.86 55.2249 121.114 55.4626L120.779 56.148C120.588 55.9496 120.359 55.7915 120.106 55.6832C119.853 55.5749 119.58 55.5185 119.305 55.5174C118.833 55.5461 118.389 55.754 118.065 56.0985C117.741 56.4431 117.56 56.8983 117.56 57.3714C117.56 57.8445 117.741 58.2998 118.065 58.6443C118.389 58.9889 118.833 59.1967 119.305 59.2254V59.2391Z" fill="#868685"/>
<path d="M121.566 55.6751V54.9143H125.884V55.6751H124.102V59.856H123.294V55.6751H121.566Z" fill="#868685"/>
<path d="M126.844 54.9143H128.975C130.072 54.9143 130.641 55.4832 130.641 56.196C130.659 56.4069 130.609 56.618 130.498 56.7982C130.387 56.9784 130.221 57.1181 130.024 57.1967V57.2447C130.292 57.3058 130.53 57.4569 130.7 57.6727C130.869 57.8885 130.96 58.1559 130.956 58.4304C130.956 59.2392 130.339 59.856 129.25 59.856H126.844V54.9143ZM127.646 55.6751V56.8883H128.975C129.551 56.8883 129.832 56.6552 129.832 56.2714C129.832 55.8876 129.551 55.6545 128.975 55.6545L127.646 55.6751ZM129.263 57.6696H127.646V59.0953H129.263C129.832 59.0953 130.168 58.8074 130.168 58.4099C130.168 58.0123 129.825 57.6696 129.256 57.6696H129.263Z" fill="#868685"/>
<path d="M136.762 57.2447V57.5257H132.649C132.671 57.9972 132.877 58.4413 133.223 58.762C133.569 59.0827 134.028 59.2541 134.5 59.2392C134.824 59.2517 135.147 59.1973 135.449 59.0793C135.751 58.9614 136.025 58.7825 136.255 58.5538H136.44V59.4105C135.862 59.8284 135.156 60.0298 134.445 59.9794C133.752 59.9858 133.086 59.7168 132.591 59.2315C132.097 58.7463 131.816 58.0846 131.81 57.392C131.803 56.6995 132.072 56.0327 132.558 55.5385C133.043 55.0443 133.704 54.763 134.397 54.7567C134.722 54.7413 135.047 54.7962 135.349 54.9176C135.651 55.0389 135.924 55.2239 136.148 55.4599C136.373 55.696 136.544 55.9775 136.649 56.2855C136.755 56.5935 136.794 56.9206 136.762 57.2447ZM132.773 56.7717H135.905C135.851 56.4116 135.666 56.0842 135.385 55.8526C135.104 55.621 134.747 55.5016 134.383 55.5175C134.013 55.5146 133.652 55.6369 133.36 55.8645C133.068 56.0922 132.861 56.4118 132.773 56.7717Z" fill="#868685"/>
<path d="M138.846 57.7176V59.856H138.037V54.9143H138.846V56.9705H141.697V54.9143H142.506V59.856H141.697V57.7176H138.846Z" fill="#868685"/>
<path d="M144.829 57.7176V59.856H144.021V54.9143H144.829V56.9705H147.681V54.9143H148.482V59.856H147.681V57.7176H144.829Z" fill="#868685"/>
<path d="M152.327 59.9998C151.811 59.9985 151.307 59.8442 150.878 59.5564C150.45 59.2687 150.116 58.8603 149.919 58.3831C149.723 57.9058 149.672 57.3809 149.774 56.8748C149.875 56.3687 150.124 55.9041 150.49 55.5395C150.855 55.175 151.321 54.927 151.827 54.8268C152.333 54.7266 152.858 54.7787 153.335 54.9765C153.812 55.1744 154.219 55.5091 154.506 55.9384C154.792 56.3677 154.945 56.8723 154.945 57.3885C154.958 57.7354 154.899 58.0811 154.771 58.404C154.644 58.727 154.452 59.0202 154.206 59.2653C153.96 59.5104 153.666 59.7022 153.343 59.8286C153.02 59.955 152.674 60.0133 152.327 59.9998ZM152.327 59.2391C152.697 59.25 153.062 59.1502 153.374 58.9526C153.687 58.7549 153.934 58.4684 154.082 58.1297C154.231 57.791 154.276 57.4155 154.21 57.0515C154.144 56.6875 153.971 56.3514 153.713 56.0864C153.454 55.8214 153.123 55.6395 152.761 55.564C152.399 55.4886 152.022 55.523 151.68 55.6629C151.337 55.8028 151.044 56.0417 150.838 56.3492C150.633 56.6566 150.523 57.0185 150.525 57.3885C150.512 57.6307 150.55 57.8728 150.636 58.0997C150.721 58.3267 150.853 58.5335 151.022 58.7072C151.191 58.8809 151.394 59.0178 151.619 59.1094C151.844 59.2009 152.085 59.245 152.327 59.2391Z" fill="#868685"/>
<path d="M158.503 59.2392C158.778 59.2399 159.049 59.1857 159.302 59.0797C159.555 58.9738 159.785 58.8183 159.977 58.6223H160.114V59.4311C159.643 59.8395 159.029 60.0441 158.407 60C157.715 60 157.05 59.7249 156.561 59.2351C156.071 58.7454 155.796 58.0812 155.796 57.3886C155.796 56.696 156.071 56.0318 156.561 55.5421C157.05 55.0524 157.715 54.7772 158.407 54.7772C158.754 54.7554 159.101 54.805 159.428 54.9229C159.754 55.0408 160.053 55.2245 160.306 55.4626L159.977 56.148C159.58 55.7705 159.051 55.5637 158.503 55.5723C158.031 55.601 157.588 55.8089 157.263 56.1534C156.939 56.4979 156.759 56.9532 156.759 57.4263C156.759 57.8994 156.939 58.3547 157.263 58.6992C157.588 59.0437 158.031 59.2516 158.503 59.2803V59.2392Z" fill="#868685"/>
<path d="M160.73 55.6751V54.9143H165.055V55.6751H163.294V59.856H162.485V55.6751H160.73Z" fill="#868685"/>
<path d="M166.762 59.856H166.001V54.9143H166.81V58.6703L169.798 54.9143H170.559V59.856H169.757V56.1069L166.762 59.856Z" fill="#868685"/>
<path d="M104.952 0.760742C107.824 0.760742 109.647 2.58391 109.647 5.16787C109.647 7.75183 107.824 9.59556 104.952 9.59556H102.08V14.7703H100.929V0.760742H104.952ZM104.952 8.42353C107.248 8.42353 108.496 7.1761 108.496 5.16787C108.496 3.15965 107.248 1.91222 104.952 1.91222H102.08V8.42353H104.952Z" fill="#868685"/>
<path d="M111.279 9.76688C111.254 9.07193 111.369 8.37901 111.617 7.72951C111.866 7.08001 112.242 6.48725 112.725 5.98666C113.208 5.48606 113.786 5.08789 114.426 4.81593C115.066 4.54397 115.755 4.40381 116.45 4.40381C117.146 4.40381 117.834 4.54397 118.474 4.81593C119.114 5.08789 119.693 5.48606 120.175 5.98666C120.658 6.48725 121.035 7.08001 121.283 7.72951C121.532 8.37901 121.647 9.07193 121.622 9.76688C121.647 10.4618 121.532 11.1548 121.283 11.8043C121.035 12.4538 120.658 13.0465 120.175 13.5471C119.693 14.0477 119.114 14.4459 118.474 14.7178C117.834 14.9898 117.146 15.13 116.45 15.13C115.755 15.13 115.066 14.9898 114.426 14.7178C113.786 14.4459 113.208 14.0477 112.725 13.5471C112.242 13.0465 111.866 12.4538 111.617 11.8043C111.369 11.1548 111.254 10.4618 111.279 9.76688ZM120.47 9.76688C120.47 8.69984 120.046 7.67649 119.292 6.92198C118.537 6.16746 117.514 5.74358 116.447 5.74358C115.38 5.74358 114.356 6.16746 113.602 6.92198C112.847 7.67649 112.423 8.69984 112.423 9.76688C112.423 10.8339 112.847 11.8573 113.602 12.6118C114.356 13.3663 115.38 13.7902 116.447 13.7902C117.514 13.7902 118.537 13.3663 119.292 12.6118C120.046 11.8573 120.47 10.8339 120.47 9.76688Z" fill="#868685"/>
<path d="M132.444 13.7902C131.457 14.6275 130.194 15.0694 128.9 15.0307C128.216 15.037 127.537 14.9037 126.906 14.639C126.275 14.3743 125.704 13.9837 125.229 13.4911C124.753 12.9985 124.384 12.4142 124.142 11.7739C123.9 11.1336 123.791 10.4507 123.821 9.76685C123.811 8.72996 124.109 7.71342 124.679 6.84706C125.249 5.9807 126.064 5.30384 127.021 4.90293C127.977 4.50202 129.031 4.39524 130.048 4.59625C131.065 4.79726 132 5.29692 132.732 6.03142L132.252 6.99098C131.383 6.13249 130.217 5.64157 128.996 5.62018C128.453 5.59362 127.911 5.68252 127.405 5.88102C126.898 6.07952 126.44 6.3831 126.06 6.77173C125.68 7.16036 125.386 7.6252 125.199 8.13558C125.012 8.64595 124.935 9.19026 124.973 9.73258C124.936 10.2746 125.013 10.8185 125.201 11.3284C125.389 11.8382 125.682 12.3026 126.062 12.691C126.442 13.0794 126.9 13.383 127.406 13.5819C127.912 13.7808 128.454 13.8704 128.996 13.845C129.588 13.8415 130.173 13.7183 130.716 13.4827C131.259 13.2471 131.749 12.904 132.156 12.4742H132.444V13.7902Z" fill="#868685"/>
<path d="M142.697 5.93537H136.371V14.7496H135.22V4.79761H143.842V14.7496H142.697V5.93537Z" fill="#868685"/>
<path d="M154.863 8.51947V14.7498H153.807L153.711 12.9266H153.616C153.277 13.5458 152.783 14.0658 152.182 14.4349C151.581 14.804 150.894 15.0094 150.189 15.0308C148.173 15.0308 146.837 13.6942 146.837 11.967C146.837 10.2398 148.208 8.80734 150.476 8.80734C151.648 8.79444 152.791 9.16514 153.732 9.86286V8.49205C153.732 6.57979 152.772 5.62022 150.99 5.62022C149.622 5.67761 148.311 6.18066 147.255 7.05271H147.063V5.83955C148.181 4.95489 149.565 4.47207 150.99 4.46875C153.328 4.49617 154.863 6.03146 154.863 8.51947ZM153.711 11.1994C152.859 10.392 151.726 9.94723 150.552 9.95881C148.729 9.95881 147.961 10.7265 147.961 11.967C147.961 13.2076 148.729 13.8862 150.264 13.8862C152.656 13.8862 153.711 11.1994 153.711 11.1994Z" fill="#868685"/>
<path d="M156.68 5.93537V4.79761H165.11V5.93537H161.471V14.7496H160.319V5.93537H156.68Z" fill="#868685"/>
<path d="M175.076 12.5427H175.357V13.7901C174.266 14.6422 172.909 15.0816 171.526 15.0307C170.841 15.037 170.163 14.9037 169.532 14.639C168.901 14.3742 168.331 13.9835 167.856 13.4908C167.382 12.9981 167.012 12.4137 166.771 11.7734C166.53 11.1331 166.422 10.4503 166.454 9.76683C166.454 6.70308 168.654 4.49609 171.43 4.49609C174.206 4.49609 176.029 6.41522 176.029 9.383V9.95874H167.598C167.579 10.4878 167.671 11.0151 167.868 11.5067C168.064 11.9982 168.362 12.4432 168.741 12.813C169.119 13.1829 169.571 13.4694 170.068 13.6542C170.564 13.839 171.093 13.918 171.622 13.8861C172.904 13.9034 174.142 13.4217 175.076 12.5427ZM174.822 8.80727C174.813 8.37823 174.718 7.9554 174.543 7.56342C174.368 7.17143 174.117 6.81812 173.805 6.52406C173.492 6.22999 173.124 6.00106 172.722 5.85058C172.321 5.7001 171.893 5.63109 171.464 5.64757C170.565 5.63684 169.693 5.9504 169.007 6.53076C168.321 7.11111 167.867 7.91936 167.728 8.80727H174.822Z" fill="#868685"/>
<path d="M186.186 10.2808H179.859V14.7839H178.715V4.79761H179.859V9.10878H186.186V4.79761H187.337V14.7496H186.186V10.2808Z" fill="#868685"/>
<path d="M189.441 5.93537V4.79761H197.872V5.93537H194.232V14.7496H193.081V5.93537H189.441Z" fill="#868685"/>
<path d="M53.7458 34.2015V19.8081H28.6533V34.2015C28.6533 34.9623 28.6533 35.8808 28.7561 36.8952L34.7671 33.0569L41.1962 28.9445L47.6595 33.0569L53.6362 36.8814L53.7458 34.2015Z" fill="white"/>
<path d="M28.6121 4.85243C28.119 3.99852 27.4098 3.28938 26.5559 2.79623C25.9837 2.46581 25.321 2.32654 24.6642 2.3987H24.5408C24.0469 2.47724 23.5986 2.73309 23.2797 3.11837C23.1085 3.34603 23.0301 3.6302 23.0604 3.91343C23.1396 4.25132 23.3031 4.56364 23.5356 4.8213C23.7681 5.07897 24.0621 5.27359 24.3901 5.38705C24.8944 5.62166 25.3573 5.93646 25.7609 6.31919C26.0049 6.53372 26.1711 6.82287 26.2338 7.14167C26.2489 7.26252 26.2249 7.38505 26.1652 7.49123C26.0943 7.61756 25.99 7.7219 25.8637 7.7928C25.6561 7.92963 25.4229 8.0229 25.1783 8.06696H25.096H24.911C24.7064 8.06959 24.5028 8.03951 24.3078 7.97786C23.7436 7.78999 23.2285 7.47855 22.7999 7.06628C22.5792 6.85192 22.3731 6.62293 22.1831 6.38088C22.0186 6.18897 21.8472 5.96964 21.669 5.7366C21.4908 5.50356 21.2029 5.14716 20.9836 4.85929L20.9014 4.7976L20.8534 4.73592C20.498 4.26577 20.0781 3.84813 19.606 3.49534C18.8956 2.96084 18.0088 2.71588 17.1248 2.80994H17.0014C16.7839 2.84864 16.5736 2.92029 16.3777 3.02241C16.164 3.11961 15.9709 3.25689 15.8088 3.4268C15.7039 3.54768 15.6184 3.6841 15.5552 3.83119C15.48 3.99887 15.4471 4.18243 15.4593 4.3658C15.5427 4.79488 15.7881 5.17534 16.1447 5.42817C16.427 5.64328 16.7275 5.83361 17.0426 5.99705H17.0974C17.3123 6.08376 17.5017 6.22355 17.648 6.40334C17.7942 6.58314 17.8925 6.79707 17.9336 7.02516C17.9487 7.13364 17.9392 7.24413 17.906 7.3485C17.8728 7.45287 17.8167 7.54848 17.7417 7.62831C17.5474 7.79342 17.3092 7.89824 17.0563 7.92988H16.9397C16.8258 7.94056 16.711 7.94056 16.597 7.92988C16.4024 7.92759 16.2088 7.89994 16.0213 7.84764C15.7948 7.79341 15.5776 7.70562 15.377 7.58718C14.8233 7.17898 14.3236 6.70226 13.8897 6.1684C13.6361 5.88739 13.3414 5.5721 13.0193 5.2294C12.6844 4.85111 12.2679 4.55394 11.8012 4.36038C11.3345 4.16683 10.8299 4.08196 10.3256 4.1122H10.2228C10.0413 4.13774 9.86521 4.19333 9.70191 4.2767C9.50198 4.36744 9.32597 4.50355 9.18786 4.67423C9.13292 4.75343 9.08695 4.83848 9.05078 4.92783L9.5991 5.20884C9.61543 5.11145 9.66365 5.02225 9.73618 4.95524C9.89601 4.80384 10.1002 4.70773 10.3188 4.68108H10.4353C10.8398 4.68026 11.2394 4.76893 11.6056 4.94075C11.9717 5.11258 12.2953 5.36329 12.5532 5.67491L13.3345 6.50425C13.849 7.09988 14.418 7.64601 15.0343 8.1355C15.3518 8.33316 15.7063 8.46378 16.0761 8.51933C16.3863 8.57167 16.702 8.58319 17.0151 8.5536H17.1522C17.5646 8.50608 17.9511 8.32842 18.2557 8.0464C18.3827 7.90625 18.4793 7.74135 18.5395 7.56206C18.5996 7.38277 18.622 7.19297 18.6053 7.00459C18.564 6.67403 18.4374 6.35991 18.2379 6.09312C18.0384 5.82633 17.7729 5.61607 17.4675 5.483H17.4058C17.1226 5.33418 16.852 5.16225 16.597 4.96895C16.3543 4.80997 16.1805 4.56518 16.1104 4.28355C16.1022 4.19176 16.1187 4.09943 16.1584 4.01624C16.2325 3.84648 16.3509 3.69972 16.5011 3.5913C16.682 3.46318 16.8914 3.38086 17.1111 3.35141H17.1865C17.9203 3.31467 18.645 3.52724 19.2427 3.95456C19.5155 4.15322 19.7639 4.38327 19.9829 4.63996C20.1748 4.85243 20.3942 5.10603 20.6683 5.44873L21.292 6.23009C21.6218 6.6914 21.9836 7.12886 22.375 7.53921C22.7653 7.90522 23.2119 8.20607 23.6978 8.43023C23.9177 8.52954 24.1474 8.60535 24.3832 8.65641C24.5526 8.68904 24.7247 8.7051 24.8973 8.70439C24.9862 8.7114 25.0756 8.7114 25.1646 8.70439H25.2811C25.6185 8.64756 25.9405 8.52155 26.2269 8.33427C26.4448 8.20523 26.6245 8.02076 26.7478 7.79966C26.8615 7.59031 26.907 7.35071 26.8781 7.11426C26.8055 6.67164 26.5829 6.26747 26.2475 5.96964C25.8029 5.51936 25.2864 5.14641 24.719 4.86614C23.8897 4.46861 23.7321 4.05737 23.7115 3.83804C23.7038 3.71713 23.7283 3.59635 23.7825 3.48799C23.8367 3.37963 23.9186 3.28757 24.0199 3.22118H24.0542C24.2394 3.10383 24.4473 3.02676 24.6642 2.995H24.863C25.341 2.97231 25.8159 3.0839 26.2338 3.31714C26.9966 3.77656 27.6271 4.42599 28.0638 5.20199V5.24311L28.6121 4.94839V4.85243Z" fill="#868685"/>
<path d="M53.5607 4.85245C54.0576 4.00145 54.7659 3.29319 55.6169 2.79625C56.1916 2.46574 56.8565 2.32652 57.5155 2.39872H57.632C58.1353 2.47604 58.592 2.73737 58.9137 3.1321C59.0819 3.36123 59.1599 3.64421 59.133 3.92716C59.0537 4.26504 58.8902 4.57737 58.6577 4.83503C58.4252 5.0927 58.1313 5.28732 57.8033 5.40078C57.299 5.63539 56.8361 5.95019 56.4325 6.33292C56.186 6.5454 56.0192 6.83548 55.9596 7.1554C55.9455 7.27545 55.9669 7.397 56.0213 7.50496C56.0972 7.62977 56.2032 7.73348 56.3297 7.80653C56.5373 7.94336 56.7704 8.03663 57.0151 8.08069H57.0905H57.2756C57.4801 8.0838 57.6838 8.05371 57.8787 7.99159C58.4457 7.80549 58.9635 7.4939 59.3935 7.08001C59.6124 6.86389 59.8184 6.63503 60.0103 6.39461L60.5244 5.75033C60.7505 5.46246 60.9904 5.16089 61.2098 4.87302L61.2783 4.78391L61.3331 4.72223C61.6867 4.25047 62.1069 3.83258 62.5806 3.48165C63.29 2.94527 64.1775 2.7001 65.0617 2.79625H65.1851C65.4004 2.835 65.6085 2.90667 65.802 3.00873C66.0117 3.10866 66.1984 3.25103 66.3503 3.42682C66.4597 3.54564 66.5478 3.68244 66.6107 3.83121C66.6871 3.99843 66.7178 4.18288 66.6998 4.36582C66.6171 4.79517 66.3715 5.17586 66.0144 5.42819C65.7301 5.64042 65.4299 5.8306 65.1166 5.99707H65.0617C64.8468 6.08378 64.6574 6.22357 64.5111 6.40336C64.3649 6.58316 64.2666 6.79709 64.2255 7.02518C64.211 7.13311 64.22 7.24292 64.2519 7.34704C64.2839 7.45116 64.338 7.54713 64.4106 7.62833C64.6066 7.79052 64.844 7.89494 65.096 7.9299H65.2125C65.3265 7.94075 65.4412 7.94075 65.5552 7.9299C65.7476 7.92756 65.9389 7.89991 66.1241 7.84766C66.3642 7.79526 66.5952 7.70749 66.8095 7.5872C67.3616 7.17714 67.8612 6.70062 68.2968 6.16842C68.5504 5.88741 68.8383 5.57213 69.1673 5.22943C69.5008 4.83285 69.9223 4.51972 70.3983 4.31503C70.8744 4.11034 71.3916 4.01977 71.9089 4.05054H72.0117C72.1932 4.07608 72.3693 4.13167 72.5326 4.21503C72.7308 4.30536 72.9047 4.44163 73.0398 4.61256C73.0993 4.68998 73.1478 4.77534 73.1837 4.86616L72.6354 5.14718C72.6191 5.04979 72.5709 4.96058 72.4983 4.89358C72.3377 4.74336 72.1339 4.64745 71.9157 4.61942H71.7992C71.3941 4.62087 70.9942 4.71053 70.6273 4.88215C70.2604 5.05378 69.9352 5.30326 69.6745 5.61325L68.8931 6.44258C68.3791 7.03627 67.8125 7.58224 67.2002 8.07384C66.8827 8.27149 66.5282 8.40211 66.1584 8.45766C65.8482 8.51 65.5325 8.52152 65.2194 8.49193H65.0823C64.6679 8.44443 64.2792 8.26687 63.9719 7.98474C63.8462 7.84403 63.7508 7.67887 63.6919 7.4996C63.6329 7.32033 63.6116 7.13082 63.6292 6.94293C63.6738 6.62864 63.7963 6.33047 63.9854 6.07552C64.1745 5.82056 64.4243 5.6169 64.7122 5.48302H64.767C65.0525 5.33434 65.3253 5.16241 65.5826 4.96897C65.8231 4.8076 65.9962 4.5638 66.0693 4.28357C66.0775 4.19178 66.0609 4.09946 66.0213 4.01627C65.9471 3.8465 65.8288 3.69974 65.6786 3.59132C65.4976 3.4632 65.2883 3.38088 65.0686 3.35143H64.9932C64.2592 3.3136 63.5342 3.52628 62.937 3.95458C62.6642 4.15324 62.4158 4.38329 62.1967 4.63998C62.0048 4.85245 61.7855 5.10605 61.5113 5.44875L60.8739 6.24382C60.5481 6.69997 60.1908 7.13282 59.8047 7.53923C59.4144 7.90524 58.9677 8.20609 58.4819 8.43025C58.262 8.52956 58.0323 8.60537 57.7965 8.65643C57.627 8.68856 57.4549 8.70462 57.2824 8.70441C57.1912 8.71142 57.0995 8.71142 57.0083 8.70441H56.8986C56.559 8.64772 56.2347 8.52174 55.9459 8.33429C55.7316 8.20307 55.5546 8.01898 55.4318 7.79968C55.3158 7.59109 55.2679 7.35145 55.2948 7.11428C55.3702 6.67111 55.5952 6.26715 55.9322 5.96966C56.3837 5.51535 56.91 5.14207 57.488 4.86616C58.3174 4.46863 58.475 4.05739 58.4956 3.83806C58.5033 3.71716 58.4788 3.59637 58.4246 3.48801C58.3704 3.37965 58.2885 3.28759 58.1871 3.2212C57.9993 3.10422 57.7893 3.02723 57.5703 2.99502H57.3715C56.8934 2.97122 56.4182 3.08288 56.0007 3.31716C55.2379 3.77658 54.6074 4.42601 54.1707 5.20201V5.24313L53.5059 4.90043L53.5607 4.85245Z" fill="#868685"/>
<path d="M47.667 33.0843L41.2037 28.9719L34.7678 33.0843L28.7637 36.9226C28.8687 37.9966 29.0987 39.0547 29.4491 40.0754C29.5863 40.4907 29.7465 40.898 29.9289 41.2954L41.2106 34.0576L52.4922 41.2817C52.695 40.8347 52.8734 40.3771 53.0269 39.9109C53.341 38.9333 53.5478 37.9244 53.6437 36.902L47.667 33.0843Z" fill="#C20D19"/>
<path d="M17.2965 16.4494C17.2622 16.2506 17.2416 16.0519 17.2211 15.8463C10.4287 15.6338 6.32319 13.3308 3.88317 10.4727C1.94538 8.15327 0.814696 5.26642 0.661783 2.2479C4.94921 7.16395 10.7685 10.4913 17.1799 11.6927H17.269L17.5775 11.7476L17.8037 11.7955L19.0442 12.0354H19.1539C21.3266 12.433 23.3417 12.5358 24.7468 13.1252C25.4327 13.3807 26.0187 13.8491 26.4192 14.4617C26.8781 15.3 27.0964 16.2488 27.0497 17.2034V17.2376H27.646V17.2034C27.7126 16.1312 27.475 15.0621 26.9606 14.119C26.6244 13.5751 26.1519 13.1285 25.5898 12.8236C23.9449 11.9052 21.6419 11.8709 19.2156 11.4049L17.7214 11.1101L17.3856 11.0484C10.798 9.83357 4.84562 6.34557 0.565827 1.19238L0.0449223 1.37059V1.48025C0.0441042 4.89567 1.23967 8.20348 3.42395 10.8291C5.98735 13.8449 10.3259 16.2232 17.2965 16.4494Z" fill="#868685"/>
<path d="M65.1585 11.1033L64.8843 11.1582L63.2325 11.4803C61.0666 11.8984 59.0104 11.9806 57.4135 12.6318C56.6106 12.9316 55.9257 13.4819 55.4601 14.2013C54.9488 15.1455 54.7114 16.2138 54.7747 17.2856V17.3199H55.371V17.2856C55.3199 16.3307 55.5384 15.3807 56.0015 14.544C56.2882 14.0878 56.687 13.7126 57.1599 13.4543C58.5992 12.6318 60.8953 12.5701 63.397 12.0835L64.6444 11.8367L65.042 11.7613L65.2819 11.7133H65.371C71.7612 10.4897 77.5546 7.15365 81.8206 2.2411C81.6647 5.25898 80.5344 8.14494 78.5992 10.4659C76.1729 13.3103 72.0947 15.6064 65.3778 15.8326C65.3778 16.0382 65.3298 16.237 65.3024 16.4358C72.2044 16.2233 76.5087 13.8518 79.0516 10.8566C81.2348 8.2406 82.4328 4.94249 82.4374 1.53514V1.37064L81.9097 1.17188C77.6627 6.34224 71.7334 9.8552 65.1585 11.0965" fill="#868685"/>
<path d="M23.0679 27.0184L22.8486 26.8813C22.2463 27.95 21.3684 28.8374 20.3062 29.4511C19.2441 30.0647 18.0368 30.3821 16.8102 30.37C15.8782 30.3649 14.9528 30.2122 14.0686 29.9177C15.5558 29.5739 16.9834 29.0102 18.3044 28.2453C19.5644 27.5504 20.679 26.6196 21.5874 25.5037L21.1899 25.0376C20.3191 26.1395 19.2381 27.0574 18.0096 27.7381C16.4495 28.6426 14.7378 29.2558 12.9582 29.5475L12.876 30.1164C14.1119 30.6782 15.4526 30.9725 16.8102 30.98C18.1327 30.9978 19.436 30.6623 20.5855 30.008C21.7349 29.3538 22.6889 28.4045 23.3489 27.2583L23.1022 27.0184" fill="#868685"/>
<path d="M25.59 29.0609C24.9246 30.6707 24.589 32.3978 24.603 34.1397C24.6134 34.6418 24.6523 35.143 24.7195 35.6407C23.7655 34.4275 23.225 32.9407 23.1774 31.3981C23.1894 30.2019 23.549 29.0351 24.2123 28.0396L23.7531 27.6489C23.005 28.7575 22.5976 30.0608 22.5811 31.3981C22.6543 33.4401 23.4965 35.3791 24.9388 36.8264L25.446 36.5523C25.298 35.7682 25.2246 34.9719 25.2267 34.1739C25.2002 32.5427 25.4936 30.922 26.0903 29.4036L25.5831 29.0609" fill="#868685"/>
<path d="M20.936 24.6744L20.607 24.2289C18.5613 25.679 16.1295 26.4856 13.6227 26.5456C12.2294 26.5551 10.8497 26.2715 9.57321 25.7129C8.29672 25.1544 7.15203 24.3335 6.21356 23.3036C7.87632 23.6246 9.56473 23.7943 11.2581 23.8108C13.999 23.8745 16.7098 23.2275 19.1265 21.9328C19.0306 21.7546 18.9415 21.5764 18.8524 21.3982C16.5178 22.6565 13.8957 23.2849 11.2444 23.2214C9.3235 23.2141 7.40828 23.012 5.52816 22.6182L5.21973 23.0774C6.19457 24.3693 7.45899 25.4144 8.9113 26.1287C10.3636 26.8429 11.9633 27.2064 13.5816 27.1898C16.2306 27.1118 18.7941 26.235 20.936 24.6744Z" fill="#868685"/>
<path d="M18.6745 21.028C18.5854 20.8429 18.51 20.6579 18.4277 20.4728C16.7666 20.8252 15.0744 21.0112 13.3763 21.028C9.6409 21.028 6.93356 19.993 4.98703 18.5125C3.46523 17.3467 2.27056 15.8073 1.5189 14.0437C5.66302 16.4041 10.355 17.6332 15.1241 17.6078C15.9192 17.6078 16.7211 17.5735 17.523 17.5119L17.3996 16.9224C16.6388 16.9773 15.878 17.0047 15.1241 17.0047C10.1719 17.0307 5.30989 15.6805 1.08024 13.1047L0.648438 13.4611C1.40406 15.654 2.78621 17.5771 4.62376 18.9923C6.67997 20.555 9.53123 21.6311 13.3763 21.6311C15.1585 21.6145 16.9342 21.4124 18.6745 21.028Z" fill="#868685"/>
<path d="M64.4114 27.7245C63.2081 27.062 62.1463 26.1702 61.2859 25.0994C61.1557 25.257 61.0186 25.4078 60.8815 25.5586C61.7829 26.6454 62.8774 27.5563 64.1098 28.2454C65.4318 29.0097 66.859 29.5755 68.3456 29.9246C67.4604 30.2147 66.5354 30.365 65.604 30.3701C64.3829 30.3805 63.1812 30.0645 62.1232 29.4548C61.0652 28.845 60.1893 27.9637 59.5861 26.902L59.1406 27.3201C59.8017 28.4429 60.7475 29.3714 61.8824 30.0117C63.0172 30.6519 64.301 30.9813 65.604 30.9664C66.959 30.9555 68.2967 30.6613 69.5313 30.1028L69.4559 29.5339C67.676 29.2432 65.9642 28.63 64.4045 27.7245" fill="#868685"/>
<path d="M58.304 28.1014C58.9439 29.083 59.291 30.2265 59.3047 31.3982C59.2472 32.9447 58.6946 34.4319 57.7282 35.6408C57.9849 33.4407 57.6857 31.2114 56.8578 29.1569L56.3506 29.4996C56.9342 30.9885 57.2296 32.5748 57.221 34.174C57.2194 34.9741 57.146 35.7723 57.0017 36.5592L57.5021 36.8197C58.9482 35.377 59.7933 33.4395 59.8667 31.3982C59.8505 30.0861 59.4579 28.8063 58.7358 27.7107L58.304 28.1014Z" fill="#868685"/>
<path d="M71.1758 23.2281C68.5519 23.2938 65.9553 22.6824 63.6364 21.4529L63.3622 21.9806C65.7587 23.2537 68.4424 23.8887 71.1552 23.8244C72.8486 23.8076 74.537 23.6379 76.1998 23.3172C75.2624 24.342 74.1205 25.1588 72.8478 25.7148C71.5751 26.2709 70.2 26.5539 68.8112 26.5454C66.3359 26.4876 63.9326 25.7008 61.9023 24.2836L61.5391 24.7565C63.6729 26.2552 66.2042 27.0855 68.8112 27.1417C70.4293 27.1572 72.0286 26.7933 73.4808 26.0791C74.9329 25.3649 76.1975 24.3204 77.1731 23.0293L76.8646 22.5632C74.9885 22.9725 73.0754 23.1884 71.1552 23.2075" fill="#868685"/>
<path d="M67.3236 17.0047C66.6382 17.0047 65.8774 17.0047 65.1578 16.9293C65.1578 17.1281 65.0824 17.32 65.0344 17.5187C65.802 17.5736 66.5628 17.6078 67.3236 17.6078C72.0904 17.6321 76.7799 16.403 80.922 14.0438C80.1614 15.8059 78.9599 17.3425 77.4333 18.5057C75.4799 19.9862 72.7726 21.0211 69.044 21.0211C67.3809 21.0056 65.7234 20.8266 64.0954 20.4865C64.0131 20.6716 63.9377 20.8566 63.8486 21.0417C65.5564 21.4102 67.297 21.6054 69.044 21.6243C72.8822 21.6243 75.7403 20.5482 77.7965 18.9855C79.63 17.5663 81.0112 15.6446 81.7719 13.4543L81.3401 13.0979C77.1194 15.6711 72.2668 17.0213 67.3236 16.9978" fill="#868685"/>
<path d="M46.995 50.5962C47.5646 51.3072 47.8698 52.1938 47.8586 53.1048C47.8673 53.7976 47.698 54.4809 47.3667 55.0894C47.0355 55.6979 46.5534 56.2111 45.9669 56.5798C46.0091 56.2249 46.032 55.8679 46.0354 55.5105C46.0719 54.1314 45.7179 52.7699 45.0141 51.5832L44.4658 51.8437C45.1432 52.9459 45.4772 54.2247 45.4254 55.5174C45.4181 56.039 45.3699 56.5592 45.2814 57.0733L45.6995 57.3954C46.5245 57.0246 47.2233 56.4211 47.7103 55.659C48.1973 54.8969 48.4513 54.0092 48.4411 53.1048C48.4515 52.0541 48.0979 51.0321 47.4405 50.2124L46.995 50.5962Z" fill="#868685"/>
<path d="M50.5655 47.9026C51.3061 48.6673 51.7213 49.6893 51.7238 50.7539C51.7249 51.3266 51.5966 51.8922 51.3486 52.4085C51.1006 52.9247 50.7391 53.3783 50.2913 53.7354C50.2913 53.6394 50.2913 53.5434 50.2913 53.4475C50.2748 51.9468 49.7478 50.4964 48.7971 49.3351L48.4887 49.5476L48.3242 49.7052C49.1983 50.771 49.682 52.1034 49.695 53.4818C49.7022 53.7753 49.6676 54.0684 49.5922 54.3522L50.0446 54.6881C50.7297 54.2925 51.2991 53.7243 51.6959 53.0399C52.0928 52.3556 52.3033 51.5792 52.3064 50.7881C52.3086 49.5742 51.8393 48.4069 50.9973 47.5325C50.8533 47.6696 50.7094 47.8066 50.5518 47.9369" fill="#868685"/>
<path d="M53.5066 44.599C54.0068 45.3448 54.2718 46.2234 54.2674 47.1213C54.2576 47.951 54.0633 48.7681 53.6985 49.5134C53.5027 48.3364 52.9584 47.2453 52.1358 46.3811L51.7314 46.8197C52.6574 47.8062 53.2059 49.0877 53.2804 50.4386L53.8288 50.5689C54.5114 49.5547 54.8852 48.3642 54.9049 47.1419C54.9123 46.0369 54.5559 44.9603 53.8905 44.0781L53.5478 44.6196" fill="#868685"/>
<path d="M41.8136 9.74634C41.7755 9.94057 41.7548 10.1378 41.752 10.3358C41.7512 10.7433 41.8335 11.1468 41.9938 11.5215C42.154 11.8962 42.3889 12.2344 42.6841 12.5154L43.1022 12.0836C42.8652 11.8585 42.6766 11.5874 42.5482 11.2868C42.4197 10.9863 42.354 10.6626 42.3551 10.3358C42.3541 10.1535 42.3748 9.97172 42.4168 9.79432C42.218 9.79432 42.0193 9.75319 41.8136 9.74634Z" fill="#868685"/>
<path d="M30.6965 8.66332C30.5236 8.52039 30.3824 8.34291 30.2821 8.14226C30.1818 7.94161 30.1245 7.72222 30.1139 7.49814V7.40219C30.1692 6.97804 30.3632 6.58408 30.6657 6.28162C30.9682 5.97916 31.3621 5.78516 31.7863 5.72981C31.5946 6.16155 31.4943 6.62825 31.4915 7.10061C31.4868 7.5441 31.5978 7.98115 31.8137 8.3686C32.0669 8.34846 32.3213 8.34846 32.5745 8.3686C32.2502 8.01636 32.0757 7.5518 32.0878 7.07319C32.0976 6.76455 32.1555 6.45932 32.2592 6.16846C32.2995 6.05561 32.3476 5.94568 32.4031 5.83947L32.4579 5.75037L32.1838 5.48306L32.0467 5.33913L31.8685 5.14722C31.2809 5.18689 30.7253 5.4293 30.2965 5.83306C29.8678 6.23682 29.5924 6.77689 29.5176 7.36106V7.49129C29.5278 7.79017 29.5994 8.08375 29.7279 8.35377C29.8564 8.6238 30.0391 8.86448 30.2647 9.06086C30.3732 8.89687 30.5188 8.76069 30.6896 8.66332" fill="#868685"/>
<path d="M34.0131 5.80521L33.7595 6.03825C33.8518 6.31955 33.9026 6.61277 33.9103 6.90871C33.9105 7.21396 33.8371 7.51476 33.6963 7.7856C33.5555 8.05645 33.3515 8.28935 33.1016 8.46457C33.33 8.50569 33.5585 8.56052 33.787 8.62906C34.2339 8.16878 34.4803 7.55022 34.4724 6.90871C34.4701 6.60713 34.4263 6.3073 34.3421 6.01769C34.6916 6.13199 35.004 6.3379 35.2469 6.61398C35.514 6.9079 35.6693 7.28638 35.6855 7.68321V7.79973C35.6521 8.05015 35.5602 8.28921 35.4174 8.49757C35.2745 8.70593 35.0846 8.87776 34.863 8.99918C35.0755 9.08143 35.2811 9.17738 35.4936 9.28019C35.716 9.10802 35.9006 8.89205 36.0362 8.64566C36.1718 8.39927 36.2554 8.12769 36.2818 7.84771V7.69006C36.2822 7.16081 36.0952 6.6485 35.7541 6.24387C35.4074 5.84768 34.9523 5.56174 34.4449 5.42139L34.1091 5.73667L34.0131 5.80521Z" fill="#868685"/>
<path d="M33.1904 4.24246C33.2228 4.18742 33.2673 4.14053 33.3207 4.10538H33.3823H33.4235C33.4971 4.19071 33.5531 4.28972 33.5884 4.39675C33.6237 4.50378 33.6375 4.61671 33.6291 4.72909V4.88673L34.2254 4.94842C34.2254 4.87303 34.2254 4.80449 34.2254 4.72909C34.2358 4.60136 34.2358 4.47299 34.2254 4.34527C34.1984 4.20264 34.1523 4.0643 34.0883 3.93403C34.0282 3.82117 33.9467 3.72108 33.8484 3.6393C33.7443 3.55413 33.6185 3.49956 33.4852 3.48166H33.4166C33.3666 3.47454 33.3158 3.47454 33.2658 3.48166C33.1783 3.5015 33.0948 3.53628 33.0191 3.58447C32.8479 3.71197 32.7132 3.88212 32.6284 4.07796C32.5298 4.2944 32.4695 4.52631 32.4502 4.76336L33.0396 4.81819C33.0588 4.61199 33.1244 4.41281 33.2316 4.2356" fill="#868685"/>
<path d="M43.6635 52.2205L43.1426 52.4467C43.5287 53.9896 43.433 55.6137 42.8684 57.1005C42.5292 57.9338 41.9524 58.6489 41.2098 59.1568C40.5138 58.6784 39.9768 58.0029 39.6676 57.2171C39.3473 56.3842 39.1891 55.4979 39.2015 54.6057C39.1995 53.8961 39.287 53.1892 39.462 52.5015L38.9068 52.2548C38.6997 53.0212 38.596 53.8118 38.5984 54.6057C38.5849 55.5848 38.7594 56.5573 39.1124 57.4707C39.4893 58.4428 40.1727 59.2656 41.059 59.8147H41.3674C42.3018 59.2273 43.0227 58.3551 43.4236 57.3267C43.7973 56.3751 43.9857 55.3608 43.9788 54.3384C43.9849 53.6182 43.8903 52.9007 43.6978 52.2068L43.6635 52.2205Z" fill="#868685"/>
<path d="M36.5974 55.5174C36.6011 55.8748 36.6239 56.2317 36.666 56.5866C36.0786 56.2183 35.5955 55.7054 35.2631 55.097C34.9307 54.4885 34.76 53.8049 34.7674 53.1117C34.7561 52.2007 35.0614 51.3141 35.631 50.6031L35.1238 50.3015C34.4988 51.1068 34.1632 52.0992 34.1711 53.1185C34.1627 54.0225 34.4174 54.9095 34.9042 55.6713C35.391 56.4331 36.0888 57.0369 36.9127 57.4091L37.3308 57.087C37.2433 56.5684 37.1997 56.0433 37.2006 55.5174C37.1904 54.58 37.3603 53.6493 37.7009 52.7758C37.7966 52.5397 37.9088 52.3107 38.0368 52.0904C38.0368 52.0287 38.0984 51.9945 38.119 51.9602L37.5775 51.6997C36.9073 52.8585 36.5682 54.1791 36.5974 55.5174Z" fill="#868685"/>
<path d="M34.233 49.7327L33.7464 49.39C32.8331 50.552 32.3295 51.9833 32.3139 53.4612C32.3139 53.5572 32.3139 53.6531 32.3139 53.7491C31.8663 53.3892 31.5056 52.933 31.2588 52.4144C31.012 51.8958 30.8853 51.3282 30.8883 50.7539C30.8943 49.7394 31.2751 48.763 31.9575 48.0123L31.512 47.6079C30.7292 48.4744 30.2946 49.5999 30.292 50.7676C30.2939 51.5598 30.5038 52.3377 30.9007 53.0233C31.2977 53.7089 31.8677 54.2783 32.5538 54.6744L33.0062 54.3385C32.9443 54.0505 32.9235 53.7551 32.9445 53.4612C32.9686 52.1098 33.4331 50.803 34.2673 49.7395" fill="#868685"/>
<path d="M30.8334 46.9225C30.6963 46.7785 30.5524 46.6346 30.4222 46.4838C29.6501 47.3373 29.1305 48.3885 28.9211 49.5201C28.5552 48.7756 28.3631 47.9577 28.3591 47.1281C28.3565 46.2862 28.5942 45.4611 29.0445 44.7497C28.9211 44.5647 28.7978 44.3865 28.6881 44.2014C28.0872 45.0584 27.7685 46.0815 27.7765 47.1281C27.7973 48.3503 28.171 49.5404 28.8526 50.5551L29.4009 50.4249C29.4829 49.3837 29.8195 48.3787 30.381 47.4982C30.5211 47.2861 30.6793 47.0866 30.854 46.9019" fill="#868685"/>
<path d="M33.1362 10.7949C33.111 10.8361 33.0757 10.8702 33.0338 10.8941C32.9919 10.9181 32.9446 10.9311 32.8964 10.932C32.8263 10.9323 32.7587 10.9065 32.7067 10.8596C32.6548 10.8127 32.6222 10.7481 32.6153 10.6784C32.7929 10.6972 32.9676 10.7363 33.1362 10.7949ZM31.9985 10.7949C32.0227 10.9852 32.1081 11.1625 32.2419 11.3C32.3756 11.4375 32.5505 11.5277 32.7401 11.5571C32.9296 11.5865 33.1236 11.5535 33.2928 11.463C33.4619 11.3725 33.597 11.2294 33.6777 11.0554C34.089 11.2336 34.5208 11.4598 34.932 11.6311L35.165 11.0759C34.7675 10.9114 34.3151 10.6716 33.8491 10.4728C33.4055 10.2572 32.9229 10.1336 32.4303 10.1095C32.1785 10.1061 31.9295 10.1624 31.7038 10.274C31.4567 10.4105 31.2471 10.6059 31.0938 10.8429L31.6009 11.1719C31.6916 11.0191 31.8219 10.8936 31.9779 10.8086" fill="#868685"/>
<path d="M31.368 14.1056C31.5849 14.1087 31.7974 14.1677 31.9849 14.2769L32.259 13.7492C31.9876 13.5938 31.6807 13.5112 31.368 13.5093C30.9069 13.5383 30.4599 13.6795 30.0657 13.9205C29.7441 14.1191 29.3801 14.2389 29.0034 14.2701C28.7784 14.2689 28.5571 14.2125 28.3591 14.1056L28.0986 14.647C28.3795 14.7884 28.689 14.8634 29.0034 14.8664C29.4877 14.8472 29.9593 14.7057 30.3742 14.4551C30.6854 14.2611 31.0372 14.1415 31.4023 14.1056" fill="#868685"/>
<path d="M40.9972 0.877218C41.0409 0.788488 41.0988 0.707465 41.1686 0.637328L41.2302 0.596204L41.2851 0.637328C41.3933 0.761498 41.4708 0.909428 41.5113 1.06913C41.5812 1.32364 41.6158 1.58655 41.6141 1.85049H42.2104C42.2107 1.43139 42.1268 1.01649 41.9636 0.630474C41.8985 0.471872 41.8031 0.327518 41.6826 0.205526C41.6223 0.140326 41.5491 0.0883031 41.4677 0.0527242C41.3864 0.0171454 41.2985 -0.0012207 41.2097 -0.0012207C41.1209 -0.0012207 41.033 0.0171454 40.9516 0.0527242C40.8702 0.0883031 40.7971 0.140326 40.7367 0.205526C40.5542 0.398814 40.4223 0.634283 40.3529 0.890926C40.265 1.2008 40.2211 1.52152 40.2227 1.84363H40.8259C40.8136 1.51075 40.872 1.17904 40.9972 0.870364" fill="#868685"/>
<path d="M39.798 12.5222C40.0943 12.2402 40.3303 11.9011 40.4917 11.5253C40.6531 11.1494 40.7365 10.7448 40.737 10.3358C40.7341 10.1401 40.7134 9.9451 40.6753 9.75317C40.4757 9.76058 40.2766 9.77888 40.079 9.80801C40.1148 9.98165 40.1332 10.1585 40.1338 10.3358C40.1339 10.6635 40.0677 10.9878 39.9393 11.2893C39.8109 11.5908 39.623 11.8633 39.3867 12.0904L39.798 12.5222Z" fill="#868685"/>
<path d="M27.6732 10.8429C27.5869 11.0778 27.5429 11.3261 27.543 11.5763C27.5564 11.9622 27.6687 12.3381 27.8692 12.6682C28.0696 12.9982 28.3514 13.2713 28.6876 13.4611L29.0988 13.3789C29.2764 13.1173 29.5171 12.9048 29.7986 12.761C30.0802 12.6172 30.3935 12.5469 30.7095 12.5564C31.2049 12.5642 31.6903 12.6962 32.1214 12.9402C32.4616 13.1147 32.7465 13.3805 32.9439 13.7079C32.7911 14.2766 32.4287 14.7663 31.9295 15.0787C31.3541 15.4274 30.6897 15.6013 30.0173 15.579L29.7774 16.052C29.9934 16.3488 30.2755 16.5914 30.6015 16.7603C30.9274 16.9292 31.2883 17.0199 31.6554 17.0252C31.9837 17.0296 32.3067 16.9417 32.5875 16.7716C32.7373 16.6707 32.8773 16.556 33.0056 16.4289C33.2318 16.2302 33.4785 15.9903 33.7253 15.7915C33.9094 15.616 34.1326 15.4868 34.3764 15.4145C34.4515 15.4045 34.5275 15.4045 34.6026 15.4145C34.8292 15.4106 35.0491 15.4913 35.2195 15.6407C35.3088 15.7308 35.3791 15.8378 35.4262 15.9556C35.4733 16.0733 35.4962 16.1993 35.4936 16.3261V16.4015C35.4963 16.5551 35.4731 16.708 35.4251 16.8539C35.3656 17.0342 35.2726 17.2016 35.1509 17.3474H35.8363C35.8843 17.2446 35.9323 17.1349 35.9665 17.0389C36.027 16.8432 36.0616 16.6405 36.0694 16.4358V16.3261C36.075 16.1161 36.0372 15.9072 35.9581 15.7126C35.8791 15.518 35.7606 15.3418 35.6101 15.1952C35.3306 14.9365 34.9629 14.7943 34.582 14.7977C34.4621 14.7978 34.3425 14.8116 34.2256 14.8388C33.7843 14.9834 33.3845 15.2327 33.0604 15.5653L32.5807 16.004C32.4794 16.105 32.3693 16.1968 32.2517 16.2781C32.0652 16.389 31.8517 16.4459 31.6348 16.4426C31.3005 16.4338 30.9763 16.3265 30.7027 16.1342C31.257 16.0667 31.789 15.8745 32.2585 15.5722C32.9099 15.1404 33.3673 14.4716 33.5334 13.7079V13.516C33.2873 13.0455 32.9019 12.6625 32.4299 12.4193C31.9091 12.124 31.3218 11.966 30.7232 11.9601C30.3665 11.9566 30.0132 12.0293 29.6869 12.1736C29.3606 12.3178 29.069 12.5301 28.8315 12.7963C28.6296 12.661 28.4623 12.4801 28.3432 12.2681C28.2241 12.0562 28.1566 11.8192 28.1461 11.5763C28.1464 11.3983 28.1789 11.2218 28.2421 11.0554C28.2843 10.9463 28.3395 10.8428 28.4066 10.747C28.5307 10.5938 28.6889 10.4718 28.8687 10.3909C29.0484 10.31 29.2446 10.2723 29.4415 10.2809C29.674 10.2785 29.9054 10.3132 30.1269 10.3837L30.3394 10.4659H30.4011L30.8329 10.2329C30.8466 10.1407 30.8833 10.0535 30.9396 9.97923C30.9959 9.90496 31.07 9.84606 31.155 9.80796C31.4595 9.66787 31.7936 9.60434 32.1283 9.6229C33.3381 9.68796 34.514 10.0454 35.5553 10.6647C36.1934 10.9835 36.8983 11.1456 37.6115 11.1376H37.8583H38.009C37.9436 11.2368 37.8678 11.3287 37.7829 11.4118L37.5909 11.5763C37.5148 11.6406 37.4347 11.7002 37.3511 11.7545L37.3922 11.8025C37.7069 12.0914 38.0001 12.403 38.2695 12.7346C39.2713 14.0718 39.9579 15.6183 40.2777 17.2583H40.8877C40.5553 15.4835 39.8189 13.8091 38.7356 12.3645C38.5569 12.1425 38.367 11.9298 38.1667 11.7271L38.2489 11.686C38.5827 11.462 38.8577 11.1611 39.0509 10.8086L38.6944 10.3837C38.3602 10.4651 38.0171 10.5042 37.6732 10.5002C37.0163 10.516 36.3666 10.3601 35.7883 10.0479L35.6855 10.0684C35.4525 9.94504 35.2263 9.83538 35.0001 9.73942L34.8973 9.69144C34.7054 9.6092 34.5204 9.54065 34.3353 9.47211L34.0269 9.37616L33.6842 9.27335L33.4854 9.22537C33.3072 9.18425 33.1427 9.15683 32.9782 9.12941C32.7084 9.08547 32.4359 9.06027 32.1626 9.05402C31.7275 9.03948 31.2952 9.12876 30.9014 9.31447L30.7027 9.45155C30.5722 9.55638 30.4649 9.68706 30.3874 9.83538C30.0904 9.74005 29.7809 9.68924 29.4689 9.68459C29.1832 9.67803 28.8997 9.73629 28.6398 9.855C28.3798 9.97371 28.1501 10.1498 27.9679 10.37C27.8559 10.5135 27.7658 10.6729 27.7006 10.8429" fill="#868685"/>
<path d="M50.0171 5.83264C50.2162 6.22344 50.3218 6.65518 50.3255 7.09377C50.3376 7.57238 50.1631 8.03694 49.8389 8.38918C50.0898 8.3694 50.3419 8.3694 50.5928 8.38918C50.8107 8.00226 50.9241 7.56525 50.9218 7.12119C50.9175 6.73592 50.8503 6.35394 50.723 5.99028C50.6929 5.91083 50.6586 5.83304 50.6202 5.75724C51.0448 5.81147 51.4394 6.00511 51.7421 6.30778C52.0447 6.61045 52.2384 7.00503 52.2926 7.42962V7.51872C52.282 7.7428 52.2247 7.96219 52.1244 8.16284C52.024 8.36349 51.8829 8.54097 51.71 8.6839C51.879 8.7813 52.0223 8.91758 52.1281 9.08144C52.3559 8.8865 52.5405 8.64626 52.6703 8.37603C52.8001 8.1058 52.8722 7.8115 52.882 7.51187V7.38164C52.8111 6.79568 52.5395 6.25233 52.1135 5.8438C51.6875 5.43527 51.1332 5.18674 50.5448 5.14038L50.3666 5.33229L50.2295 5.47623L49.9554 5.7641L50.0102 5.8532" fill="#868685"/>
<path d="M46.1583 7.84772C46.1879 8.12763 46.2736 8.39871 46.4102 8.64481C46.5468 8.89092 46.7315 9.10701 46.9534 9.28021C47.1658 9.1774 47.3715 9.08145 47.5839 8.9992C47.3607 8.87903 47.1692 8.70767 47.0251 8.49918C46.8809 8.29068 46.7882 8.05099 46.7546 7.79975V7.68323C46.7556 7.29325 46.8911 6.91556 47.1384 6.614C47.3756 6.34094 47.6805 6.13525 48.0226 6.0177C47.938 6.30956 47.8942 6.61172 47.8924 6.91558C47.8862 7.55473 48.1325 8.17049 48.5778 8.62908C48.8108 8.56054 49.0507 8.50571 49.2632 8.46459C49.0158 8.28888 48.814 8.05666 48.6745 7.78723C48.5351 7.51781 48.4619 7.21897 48.4612 6.91558C48.4662 6.61769 48.5147 6.32213 48.6052 6.03827L48.3584 5.80523L48.2693 5.72983L48.0226 5.41455C47.4929 5.54368 47.015 5.83047 46.6518 6.23703C46.3106 6.64166 46.1237 7.15397 46.124 7.68323V7.84087L46.1583 7.84772Z" fill="#868685"/>
<path d="M48.8043 4.88681V4.72917C48.8005 4.55164 48.8381 4.37565 48.914 4.21512L48.9894 4.11231H49.0305H49.0922C49.2759 4.29435 49.3837 4.5393 49.3938 4.79771H50.0106C49.9838 4.55875 49.9142 4.32657 49.805 4.11231C49.805 4.05748 49.7571 3.99579 49.7228 3.94096C49.6468 3.82499 49.5491 3.72489 49.4349 3.64624C49.3623 3.59692 49.2808 3.56202 49.195 3.54343C49.145 3.5363 49.0942 3.5363 49.0442 3.54343H48.9757C48.8393 3.55777 48.7104 3.61269 48.6056 3.70107C48.4094 3.882 48.2791 4.12319 48.2355 4.38647C48.2113 4.51307 48.1975 4.64144 48.1943 4.7703C48.1943 4.83884 48.1943 4.91423 48.1943 4.98962L48.8043 4.88681Z" fill="#868685"/>
<path d="M49.8047 10.6784C49.7989 10.7372 49.7747 10.7928 49.7355 10.837C49.6963 10.8813 49.6441 10.9121 49.5864 10.925C49.5287 10.9379 49.4684 10.9323 49.414 10.9089C49.3597 10.8856 49.3141 10.8457 49.2838 10.7949C49.4522 10.7355 49.6271 10.6964 49.8047 10.6784ZM49.5237 11.5351C49.7398 11.5334 49.948 11.4533 50.1094 11.3095C50.2708 11.1658 50.3744 10.9683 50.401 10.7538C50.5571 10.8387 50.6873 10.9642 50.778 11.117L51.2783 10.788C51.1294 10.5498 50.9217 10.3539 50.6752 10.2192C50.4504 10.105 50.2007 10.0485 49.9486 10.0547C49.454 10.0795 48.9692 10.203 48.523 10.4179C48.0638 10.6167 47.6114 10.8566 47.207 11.0211L47.4401 11.5763C47.8582 11.398 48.2831 11.1787 48.7012 10.9937C48.7698 11.1495 48.882 11.2822 49.0243 11.3759C49.1666 11.4695 49.3328 11.52 49.5031 11.5214" fill="#868685"/>
<path d="M53.41 14.2701C53.0354 14.2388 52.6736 14.119 52.3544 13.9205C51.9603 13.6795 51.5133 13.5383 51.0522 13.5093C50.7379 13.5092 50.4288 13.5894 50.1543 13.7423L50.4353 14.2769C50.6224 14.1668 50.8351 14.1077 51.0522 14.1056C51.4172 14.1415 51.769 14.2611 52.0803 14.4551C52.4831 14.6992 52.9397 14.8404 53.41 14.8664C53.7266 14.8644 54.0386 14.7894 54.3215 14.647L54.0542 14.1124C53.8542 14.2133 53.6339 14.2672 53.41 14.2701Z" fill="#868685"/>
<path d="M51.7378 9.45159C51.6754 9.40044 51.6089 9.35458 51.539 9.31451C51.1473 9.12986 50.7175 9.04061 50.2847 9.05406C50.0114 9.06031 49.7389 9.0855 49.4691 9.12945C49.3046 9.12945 49.1332 9.18428 48.9619 9.22541L48.7631 9.27339L48.4204 9.3762L48.112 9.47215C47.9269 9.54069 47.7419 9.60923 47.55 9.69148L47.4471 9.73946C47.221 9.83541 46.9879 9.94508 46.7617 10.0685L46.6726 10.1164C46.0927 10.424 45.4442 10.5796 44.7878 10.5688C44.4438 10.5734 44.1006 10.5342 43.7665 10.4523L43.4101 10.8772C43.5114 11.0635 43.6357 11.2362 43.7803 11.3913C43.9011 11.5347 44.0447 11.6574 44.2052 11.7545C44.2312 11.771 44.2587 11.7847 44.2874 11.7957C44.0887 12.0013 43.9036 12.2069 43.7254 12.4262C42.644 13.8752 41.9057 15.5509 41.5664 17.3268H42.1833C42.5017 15.6864 43.1884 14.1397 44.1915 12.8032C44.4571 12.4683 44.7506 12.1565 45.0688 11.8711L45.1099 11.8231C45.0263 11.7687 44.9462 11.7092 44.87 11.6449L44.6781 11.4804C44.586 11.3927 44.5054 11.2937 44.4382 11.1857H44.5822H44.8358C45.549 11.1936 46.2539 11.0315 46.892 10.7127C47.9333 10.0935 49.1092 9.73597 50.319 9.67092C50.6516 9.65004 50.984 9.7137 51.2854 9.85598C51.3714 9.8937 51.4465 9.95235 51.504 10.0266C51.5614 10.1008 51.5994 10.1883 51.6144 10.2809L52.0393 10.514C52.3396 10.3813 52.6638 10.3114 52.992 10.3083C53.1897 10.2967 53.3872 10.3323 53.5684 10.4122C53.7495 10.492 53.9091 10.6138 54.0338 10.7676C54.1064 10.861 54.1642 10.965 54.2052 11.076C54.2684 11.2424 54.3009 11.4189 54.3012 11.5969C54.2901 11.8396 54.2224 12.0764 54.1034 12.2883C53.9843 12.5002 53.8173 12.6812 53.6158 12.8169C53.3769 12.547 53.0821 12.3324 52.7518 12.188C52.4216 12.0436 52.0638 11.9728 51.7035 11.9807C51.1072 11.9875 50.5223 12.1455 50.0037 12.4399C49.5289 12.6793 49.1425 13.0633 48.9002 13.5366V13.7285C49.075 14.4995 49.5482 15.1699 50.2162 15.5928C50.6799 15.8816 51.2019 16.0642 51.7446 16.1274C51.4592 16.3337 51.1167 16.4463 50.7645 16.4495C50.5476 16.4528 50.3341 16.3959 50.1476 16.285C50.03 16.2036 49.9199 16.1119 49.8186 16.0109C49.6062 15.819 49.3457 15.5654 49.0715 15.3255C48.8132 15.0903 48.5034 14.9189 48.1668 14.8251C47.9263 14.7751 47.6775 14.7812 47.4397 14.8431C47.202 14.9049 46.9817 15.0207 46.796 15.1815C46.6455 15.3281 46.5271 15.5043 46.448 15.6989C46.369 15.8936 46.3311 16.1025 46.3368 16.3125V16.4153C46.3439 16.6223 46.3785 16.8274 46.4396 17.0253C46.4725 17.1322 46.5161 17.2355 46.5698 17.3337H47.2552C47.1336 17.1879 47.0406 17.0205 46.9811 16.8402C46.9351 16.6936 46.9097 16.5414 46.9057 16.3878V16.3125C46.9006 16.186 46.9217 16.0598 46.9677 15.9418C47.0137 15.8239 47.0836 15.7167 47.173 15.6271C47.3464 15.4783 47.5682 15.3979 47.7967 15.4009C47.8719 15.3941 47.9476 15.3941 48.0229 15.4009C48.3622 15.5282 48.669 15.7296 48.9208 15.9903L49.3868 16.4221C49.5174 16.5494 49.6597 16.6641 49.8118 16.7648C50.0926 16.9349 50.4156 17.0228 50.7439 17.0184C51.1108 17.0121 51.4713 16.9209 51.7971 16.752C52.1229 16.5832 52.4052 16.3413 52.6219 16.0451L52.382 15.5722C51.7074 15.5942 51.0409 15.4204 50.4629 15.0719C49.9674 14.7556 49.6062 14.2674 49.4485 13.7011C49.6452 13.3891 49.9222 13.1358 50.2504 12.9677C50.6791 12.7237 51.1623 12.5917 51.6555 12.5839C51.9717 12.573 52.2855 12.6428 52.5673 12.7867C52.849 12.9306 53.0896 13.1438 53.2662 13.4064L53.6843 13.4886C54.032 13.3008 54.3248 13.0258 54.534 12.6905C54.7431 12.3552 54.8613 11.9712 54.8769 11.5763C54.875 11.3257 54.8285 11.0774 54.7398 10.843C54.6794 10.6721 54.5914 10.5124 54.4794 10.37C54.2958 10.1497 54.0649 9.97359 53.8038 9.85491C53.5427 9.73623 53.2582 9.67803 52.9715 9.68463C52.6618 9.68914 52.3545 9.73997 52.0599 9.83541C51.982 9.68538 51.872 9.55433 51.7378 9.45159Z" fill="#868685"/>
<path d="M27.0561 18.2317V34.2084C26.9072 37.1491 27.5186 40.0786 28.8313 42.7142C28.9684 42.9678 29.1192 43.2283 29.2768 43.4887C29.4345 43.7492 29.4893 43.8314 29.6058 44.0028C31.5729 46.9294 34.9999 49.8629 41.1 52.2207L41.2028 52.2618L41.3125 52.2207C47.4742 49.8287 50.9492 46.8335 52.8889 43.8657C52.994 43.7149 53.0899 43.5641 53.1767 43.4133C53.3207 43.1803 53.4509 42.9472 53.5743 42.7279C54.8882 40.0929 55.4974 37.1625 55.3426 34.2221V18.2317H27.0561ZM54.7463 30.4318V34.2084C54.8965 37.0506 54.3111 39.8834 53.0465 42.4332C51.3673 45.5997 48.002 48.9582 41.2028 51.6176C34.4105 48.9582 31.0451 45.5997 29.3591 42.4332C28.096 39.8831 27.5128 37.05 27.6661 34.2084V18.828H54.7532L54.7463 30.4318Z" fill="#868685"/>
<path d="M43.4033 9.18422H43.5335C43.8353 9.25915 44.1328 9.35068 44.4245 9.45838L44.8837 8.99916C44.5777 8.87234 44.2641 8.76475 43.9447 8.67702C43.408 8.51718 42.8571 8.4093 42.2998 8.35488C41.9502 8.32061 41.6144 8.30005 41.2168 8.30005C40.7722 8.30151 40.328 8.33127 39.8871 8.38915C39.3599 8.45297 38.8393 8.56306 38.3313 8.71814C38.0499 8.80177 37.773 8.90015 37.502 9.01287L37.9612 9.47208C39.0034 9.08905 40.1065 8.89861 41.2168 8.91006C41.9529 8.91099 42.6865 8.99607 43.4033 9.16365" fill="#868685"/>
<path d="M44.9662 2.74144C44.4702 2.28988 43.8206 2.04472 43.1499 2.05604C42.9192 2.0595 42.6895 2.08706 42.4645 2.13829L42.2452 2.51526C42.3614 2.91159 42.4214 3.32227 42.4234 3.73527C42.4247 4.4807 42.2182 5.21174 41.8271 5.84631C41.7294 6.01071 41.612 6.16262 41.4775 6.29867L41.971 6.65508C42.1666 6.43409 42.3347 6.19012 42.4714 5.92855C42.8322 5.25385 43.0205 4.50039 43.0197 3.73527C43.0153 3.37745 42.9716 3.02119 42.8895 2.6729H43.1842C43.6914 2.67592 44.1796 2.86633 44.555 3.20751C44.7403 3.3836 44.8866 3.59655 44.9846 3.83265C45.0826 4.06876 45.13 4.32276 45.1239 4.57831C45.1004 5.19002 44.9185 5.78517 44.5961 6.30552C44.2922 6.80904 43.9556 7.29214 43.5886 7.75172L43.9518 7.84082L44.2054 7.91622C44.5377 7.49793 44.8422 7.05834 45.117 6.60025C45.4962 5.98019 45.7044 5.2707 45.7202 4.54404C45.7234 4.20814 45.6583 3.87508 45.5287 3.56517C45.3991 3.25526 45.2077 2.97499 44.9662 2.74144Z" fill="#868685"/>
<path d="M38.3311 7.88202C38.4525 7.84281 38.5761 7.81077 38.7012 7.78606C38.3228 7.31524 37.9748 6.82075 37.6594 6.3056C37.331 5.7707 37.1512 5.15792 37.1385 4.53041C37.1297 4.27514 37.1753 4.02092 37.2722 3.7846C37.3691 3.54827 37.5151 3.33524 37.7005 3.15961C38.0759 2.81842 38.5641 2.62802 39.0713 2.62499C39.1741 2.62499 39.2701 2.62499 39.366 2.62499C39.2839 2.97328 39.2402 3.32954 39.2358 3.68736C39.2349 4.54404 39.4722 5.38411 39.9212 6.11368C40.0284 6.28584 40.1499 6.44863 40.2845 6.60032L40.778 6.25076C40.16 5.54058 39.8236 4.6287 39.8321 3.68736C39.8341 3.27436 39.8941 2.86368 40.0103 2.46735L39.7978 2.1315C39.5727 2.08228 39.3429 2.05701 39.1124 2.05611C38.4437 2.04374 37.7957 2.28916 37.303 2.74151C37.0627 2.97128 36.8724 3.24811 36.7438 3.55471C36.6153 3.86132 36.5513 4.19113 36.5559 4.52355C36.5719 5.24924 36.7775 5.95811 37.1522 6.57976C37.4365 7.05729 37.7525 7.51525 38.098 7.95056C38.1777 7.91599 38.2603 7.88847 38.3448 7.86831" fill="#868685"/>
<path fill-rule="evenodd" clip-rule="evenodd" d="M35.5488 28.3754L33.7394 27.9367L34.7195 26.3535L34.6578 26.2918L33.0677 27.2582L32.6359 25.4487H32.5468L32.1081 27.2582L30.5248 26.2849C30.5028 26.3015 30.4822 26.3198 30.4632 26.3398L31.4296 27.9367L29.6201 28.3617V28.4508L31.4364 28.8894L30.4563 30.4796L30.518 30.5413L32.1081 29.568L32.5399 31.3843H32.629L33.0677 29.568L34.651 30.5481L34.7126 30.4864L33.7462 28.8963L35.5557 28.4645L35.5488 28.3754Z" fill="#C20D19"/>
<path fill-rule="evenodd" clip-rule="evenodd" d="M44.1777 23.9479L42.3682 23.5092L43.3415 21.9328L43.2798 21.8711L41.6897 22.8375L41.2579 21.0281H41.1688L40.7301 22.8375L39.1468 21.8574L39.1126 21.9328L40.0858 23.5229L38.2695 23.9547V24.0438L40.079 24.4825L39.1126 26.0452L39.1743 26.1137L40.7644 25.1405L41.1688 26.9499H41.2579L41.6965 25.1405L43.2867 26.1206L43.3484 26.0589L42.3614 24.4688L44.1777 24.037V23.9479Z" fill="#C20D19"/>
<path fill-rule="evenodd" clip-rule="evenodd" d="M52.8213 28.3754L51.005 27.9367L51.9851 26.3535L51.9234 26.2918L50.3333 27.2582L49.9015 25.4487H49.8055L49.3943 27.2582L47.811 26.2849L47.7493 26.3398L48.7089 27.9367L46.8994 28.3617V28.4508L48.7089 28.8894L47.7287 30.4796L47.7904 30.5413L49.3943 29.568L49.8192 31.3843H49.9083L50.347 29.568L51.9303 30.5481L51.9988 30.4864L51.0255 28.8963L52.8213 28.4645V28.3754Z" fill="#C20D19"/>
<path d="M41.2104 34.0574L29.915 41.2746C31.3612 44.4138 34.473 47.8065 41.2036 50.411C47.9342 47.8065 51.0459 44.4206 52.4921 41.2815L41.2104 34.0574ZM45.1446 43.0293L42.7252 43.605L44.0206 45.7298L43.952 45.7983L41.8547 44.4892L41.2721 46.9155H41.1693L40.5936 44.496L38.4277 45.7846L38.3592 45.716L39.6614 43.5913L37.242 43.0087V42.9059L39.6614 42.3302L38.366 40.2054L38.4346 40.1369L40.5525 41.446L41.1693 39.0197H41.2721L41.8547 41.446L43.9863 40.1506L44.0549 40.2191L42.7457 42.337L45.1721 42.9265L45.1446 43.0293Z" fill="#294A96"/>
</g>
<defs>
<clipPath id="clip0_254_3554">
<rect width="201.282" height="60" fill="white" transform="translate(0.0449219)"/>
</clipPath>
</defs>
</svg>
